<?xml version="1.0" encoding="UTF-8"?>
<svg id="Capa_2" data-name="Capa 2" xmlns="http://www.w3.org/2000/svg" xmlns:xlink="http://www.w3.org/1999/xlink" viewBox="0 0 657.99 564.72">
  <defs>
    <style>
      .cls-1 {
        fill: #e6f3ed;
      }

      .cls-2 {
        fill: #9ca8af;
      }

      .cls-3 {
        fill: #99e7ff;
      }

      .cls-4 {
        fill: #7d8a8f;
      }

      .cls-5 {
        fill: #98a4ab;
      }

      .cls-6 {
        fill: #73c0e2;
      }

      .cls-7 {
        fill: #a7835b;
      }

      .cls-8 {
        fill: #5097b7;
      }

      .cls-9 {
        fill: #2fc1e5;
      }

      .cls-10 {
        fill: #6feafd;
      }

      .cls-11 {
        fill: #c2cece;
      }

      .cls-12 {
        fill: #b3bdbd;
      }

      .cls-13 {
        fill: #737472;
      }

      .cls-14 {
        fill: #21689e;
      }

      .cls-15 {
        fill: #fff8fa;
      }

      .cls-16 {
        fill: #ebedef;
      }

      .cls-17 {
        fill: #5590af;
      }

      .cls-18 {
        fill: #916f51;
      }

      .cls-19 {
        fill: #45b5dc;
      }

      .cls-20 {
        fill: #aabbc9;
      }

      .cls-21 {
        fill: #2493de;
      }

      .cls-22 {
        fill: #f5fbff;
      }

      .cls-23 {
        fill: #d5edfa;
      }

      .cls-24 {
        fill: #104d71;
      }

      .cls-25 {
        fill: #01b4ff;
      }

      .cls-26 {
        fill: #13273a;
      }

      .cls-27 {
        fill: #0383d3;
      }

      .cls-28 {
        fill: #00b0ff;
      }

      .cls-29 {
        fill: #7a8e88;
      }

      .cls-30 {
        fill: #58544e;
      }

      .cls-31 {
        fill: #026ec0;
      }

      .cls-32 {
        fill: #3e8aae;
      }

      .cls-33 {
        fill: #b2b9b9;
      }

      .cls-34 {
        fill: #0373c3;
      }

      .cls-35 {
        fill: #016dc0;
      }

      .cls-36 {
        fill: #1a99f2;
      }

      .cls-37 {
        fill: #f8fefc;
      }

      .cls-38 {
        fill: #16b2f2;
      }

      .cls-39 {
        fill: #adb2b2;
      }

      .cls-40 {
        fill: #59b4e4;
      }

      .cls-41 {
        fill: #a5b3be;
      }

      .cls-42 {
        fill: #07192b;
      }

      .cls-43 {
        fill: #abb3b2;
      }

      .cls-44 {
        fill: #b9e9f8;
      }

      .cls-45 {
        fill: #004572;
      }

      .cls-46 {
        fill: #0070bd;
      }

      .cls-47 {
        fill: #8a989e;
      }

      .cls-48 {
        fill: #006fbd;
      }

      .cls-49 {
        fill: #1093e3;
      }

      .cls-50 {
        fill: #7db5d9;
      }

      .cls-51 {
        fill: #87bad5;
      }

      .cls-52 {
        fill: #b1bdb8;
      }

      .cls-53 {
        fill: #2b7fb5;
      }

      .cls-54 {
        fill: none;
        stroke: #001c44;
        stroke-miterlimit: 10;
      }

      .cls-55 {
        fill: #138ed7;
      }

      .cls-56 {
        fill: #a9eefe;
      }

      .cls-57 {
        fill: #4894c4;
      }

      .cls-58 {
        fill: #f9fdff;
      }

      .cls-59 {
        fill: #2391dd;
      }

      .cls-60 {
        fill: #fcfbfb;
      }

      .cls-61 {
        fill: #d1b388;
      }

      .cls-62 {
        fill: #778893;
      }

      .cls-63 {
        fill: #edffff;
      }

      .cls-64 {
        fill: #0ea5f7;
      }

      .cls-65 {
        fill: #0270c6;
      }

      .cls-66 {
        fill: #041a2f;
      }

      .cls-67 {
        fill: #06263a;
      }

      .cls-68 {
        fill: #064f87;
      }

      .cls-69 {
        fill: url(#Degradado_sin_nombre);
      }

      .cls-70 {
        fill: #0f93e4;
      }
    </style>
    <linearGradient id="Degradado_sin_nombre" data-name="Degradado sin nombre" x1="77.71" y1="1791.79" x2="612.32" y2="1791.79" gradientTransform="translate(0 1987.36) scale(1 -1)" gradientUnits="userSpaceOnUse">
      <stop offset="0" stop-color="#00b0ff"/>
      <stop offset="1" stop-color="#006fbd"/>
    </linearGradient>
  </defs>
  <g id="Capa_1-2" data-name="Capa 1">
    <g id="Capa_6" data-name="Capa 6">
      <path class="cls-67" d="M613.91,312.55c12.03-6.21,20.25-18.76,20.25-33.23,0-20.33-16.24-36.87-36.45-37.36-3.01-21.04-8.35-41.32-15.73-60.59,41.93-30.43,78.85-69.06,59.1-102.01-22.15-36.95-104.66-35.57-162.61-29.51C432.93,18.41,377.73,0,318.22,0c-49.56,0-96.13,12.77-136.61,35.19-35.88-13.4-87.6-25.53-111.76,3.15-22.71,26.97,1.85,56.05,23.04,73.84-17.93,23.7-32.2,50.31-41.98,79.01-20,.73-35.98,17.17-35.98,37.35,0,15.02,8.86,27.96,21.63,33.9-.2,2.79-.35,5.6-.46,8.41-10.38,2.84-25.71,11.15-32.7,35.37-11.09,38.41,8.51,64.74,8.51,64.74,0,0-14.25,17.03-4.55,40.59,5.82,14.13,26.31,29.11,39.44,37.6v32.88h51.2l23.2,19.14v4.47c0,11.7,9.48,21.18,21.18,21.18h14.93c4.71,0,9.07-1.54,12.59-4.15,43.1,26.66,93.91,42.05,148.31,42.05s105.62-15.51,148.83-42.37c.09,6.78,5.62,12.26,12.43,12.26h18.61c6.86,0,12.43-5.57,12.43-12.43v-15.38c6.53-4.78,16.36-12.53,30.24-24.77h48.88v-27.14c22.65-13.21,46.73-32.21,44.96-52.64-.76-8.73-4.17-15.29-8.8-20.24,6.59-8.05,10.54-18.34,10.54-29.55,0-16.9-8.98-31.71-22.43-39.9Zm-107.67-240.45l-7.11-6.16c.83-.04,1.66-.08,2.49-.12,47.38-2.16,100.98,1.02,117.41,23.89,16.53,23.01-11.33,49.73-45.7,71.67-16.24-34.01-39.16-64.31-67.09-89.29Z"/>
      <path class="cls-25" d="M320.88,47.28c-45.42,0-87.54,15.54-122.21,42.04,12.43,5.03,27.85,10.89,46.92,17.62,69.76,24.61,94.27,29.57,173.57,63.1,27.81,11.76,71.35,33.7,110.71,59.94-21.96-104.66-107.19-182.7-208.98-182.7Z"/>
      <path class="cls-34" d="M465.19,108.68l-15.9,8.77c28.71,26.81,50.92,61.78,63.68,101.65,5.68,3.52,11.33,7.15,16.9,10.86-9.97-47.53-32.99-89.56-64.68-121.29Z"/>
      <path class="cls-68" d="M490.23,168.5l-35.28,18.2c7.98,4.01,16.37,8.4,24.95,13.12l22.15-8.81c-3.57-7.76-7.52-15.27-11.82-22.51Z"/>
      <path class="cls-59" d="M479.9,199.82c9.98,5.48,20.23,11.4,30.42,17.66l15.16-5.18c-2.64-9.21-5.77-18.19-9.38-26.88l-36.21,14.4Z"/>
      <path class="cls-15" d="M499.42,210.92l15.34-5.86c.4-9.11-3.37-14.25-3.37-14.25l-28.24,10.81c5.37,2.99,10.81,6.09,16.27,9.31Z"/>
      <path class="cls-3" d="M428.23,173.98c1.85,.83,3.74,1.69,5.68,2.58l25.89-15.64-31.57,13.07Z"/>
      <path class="cls-60" d="M605.72,297.64c6.78-3.31,11.45-10.27,11.45-18.33,0-11.26-9.13-20.39-20.39-20.39-7.22,0-13.57,3.76-17.19,9.43,10.43,9.65,19.39,19.49,26.12,29.28Z"/>
      <path class="cls-20" d="M616.79,283.26c-1.84-9.37-10.09-16.44-20-16.44-5.16,0-9.86,1.92-13.45,5.07,8.84,8.52,16.47,17.15,22.38,25.75,5.64-2.76,9.82-8.04,11.07-14.38Z"/>
      <path class="cls-17" d="M613.44,287.21c-5.87,0-11.61-.59-17.15-1.7,3.49,4.04,6.65,8.09,9.43,12.14,4.43-2.16,7.96-5.9,9.87-10.47-.71,.02-1.43,.03-2.15,.03Z"/>
      <circle class="cls-33" cx="52.3" cy="228.54" r="19.79"/>
      <path class="cls-58" d="M71.87,225.52c-1.45-9.5-9.66-16.78-19.57-16.78-10.93,0-19.79,8.86-19.79,19.79,0,.47,.02,.93,.05,1.4,4.9,3.02,10.66,4.77,16.83,4.77,8.75,0,16.68-3.5,22.47-9.18Z"/>
      <g>
        <path class="cls-57" d="M71.99,230.61c-.91-7.91-7.63-14.06-15.78-14.06-8.78,0-15.89,7.11-15.89,15.89,0,8.16,6.15,14.87,14.06,15.78,9.28-.97,16.65-8.34,17.61-17.61Z"/>
        <path class="cls-33" d="M40.31,232.44c0,.24,0,.48,.02,.72,2.07,.98,4.38,1.54,6.82,1.54,8.78,0,15.89-7.11,15.89-15.89,0-.24,0-.48-.02-.72-2.07-.98-4.38-1.54-6.82-1.54-8.78,0-15.89,7.11-15.89,15.89Z"/>
      </g>
      <g>
        <polygon class="cls-27" points="271.15 309 102.07 309 68.73 340.28 235.63 340.28 271.15 309"/>
        <path class="cls-70" d="M245.42,309c-11.44,11.64-19.57,24.84-23.2,31.28h13.42l35.52-31.28h-25.74Z"/>
        <polygon class="cls-48" points="102.56 340.28 129.62 314.15 119.73 314.15 92.77 340.28 102.56 340.28"/>
        <polygon class="cls-55" points="144.72 340.28 162.77 317.12 140.67 340.28 144.72 340.28"/>
        <polygon class="cls-55" points="186.32 340.28 192.19 340.28 211.01 314.15 186.32 340.28"/>
        <path class="cls-37" d="M245.42,309H102.07l-33.34,31.28h6.27l26.79-26.13H240.64c1.52-1.73,3.11-3.46,4.77-5.15Z"/>
      </g>
      <polygon class="cls-27" points="381.41 310.37 535.66 310.37 566.08 338.91 413.82 338.91 381.41 310.37"/>
      <path class="cls-70" d="M404.89,310.37c10.43,10.61,17.85,22.66,21.17,28.53h-12.24l-32.41-28.53h23.48Z"/>
      <polygon class="cls-48" points="550.26 338.91 525.57 315.07 534.6 315.07 559.19 338.91 550.26 338.91"/>
      <polygon class="cls-55" points="504.34 338.91 487.88 317.77 508.03 338.91 504.34 338.91"/>
      <polygon class="cls-55" points="466.39 338.91 461.03 338.91 443.87 315.07 466.39 338.91"/>
      <path class="cls-37" d="M404.89,310.37h130.77l30.41,28.53h-5.72l-24.44-23.84h-126.67c-1.39-1.58-2.84-3.15-4.36-4.69Z"/>
      <polygon class="cls-37" points="383.31 332.16 320.8 279.7 258.29 332.16 258.29 370.57 383.31 370.57 383.31 332.16"/>
      <polygon class="cls-16" points="264.02 336.97 264.02 370.57 383.31 370.57 383.31 332.16 326.53 284.51 264.02 336.97"/>
      <path class="cls-2" d="M320.8,279.7l-62.51,52.46h0l5.73,4.81,56.78-47.66s2.8,6.69,13.61,12.85c11.98,6.83,48.9,39.61,48.9,39.61v-9.61l-62.51-52.46Z"/>
      <polygon class="cls-12" points="62.2 252.38 62.2 326.1 94 296.26 131.68 296.26 131.68 255.45 187.51 254.06 187.51 252.38 62.2 252.38"/>
      <polygon class="cls-37" points="73.88 315.14 94 296.26 125.3 296.26 125.3 259.95 73.88 259.95 73.88 315.14"/>
      <path class="cls-5" d="M187.51,296.26v-42.2l-55.83,1.39v40.81h55.83Zm-9.5-5.53h-9.3v-2.16h9.3v2.16Zm-26.29-26.27h28.57v2.97h-28.57v-2.97Zm0,11.78h28.57v2.97h-28.57v-2.97Z"/>
      <polygon class="cls-37" points="62.2 252.38 71.86 259.58 71.86 258.05 127.2 258.05 127.2 296.26 131.68 296.26 131.68 255.45 187.51 254.06 187.51 252.38 62.2 252.38"/>
      <path class="cls-30" d="M190.26,476.75c37,26.78,82.03,42.5,130.62,42.5s93.62-15.72,130.62-42.5H190.26Z"/>
      <path class="cls-7" d="M440.14,484.46c-33.8-1.87-72.67-2.93-114.03-2.93-45.32,0-87.66,1.28-123.61,3.49,34.51,21.72,75.03,34.23,118.38,34.23,43.72,0,84.56-12.73,119.26-34.79h0Z"/>
      <path class="cls-61" d="M244.18,494.76c8.31,4.12,16.98,7.6,25.96,10.36,16.83-.6,34.8-.92,53.46-.92,16.85,0,33.14,.26,48.54,.75,8.91-2.77,17.51-6.24,25.75-10.35-23.38-.68-48.35-1.04-74.29-1.04-27.84,0-54.57,.42-79.42,1.2Z"/>
      <path class="cls-18" d="M326.11,481.53c41.35,0,80.22,1.06,114.03,2.93-6.73-4.41-15.45-7.71-29.05-7.71H251.49c-13.04,0-39.55,1.52-48.99,8.27,35.95-2.21,78.29-3.49,123.61-3.49Z"/>
      <path class="cls-61" d="M411.8,486.85c-29.22,.48-58.62,.72-88.2,.72-31.47,0-62.74-.28-93.8-.82l18.88-6.11h144.4l18.72,6.21Z"/>
      <path class="cls-37" d="M320.98,220.89c-14.9,0-26.98,12.08-26.98,26.98,0,10.29,5.77,19.24,14.24,23.79-9.99,8.85-23.14,20.17-37.18,31.6-20.56,16.72-35.65,31.3-41.4,37.02h5.97l76.21-67.02h0l9.14-8.05,9.21,8.03c10.94-3.44,17.77-13.29,17.77-25.37,0-14.9-12.08-26.98-26.98-26.98Z"/>
      <path class="cls-21" d="M159.51,490.3l4.98-5.06h0c-1.52-2.88-4.55-4.84-8.03-4.84h-15.34c-5.02,0-9.08,4.07-9.08,9.08v17.02c0,5.02,4.07,9.08,9.08,9.08h15.34c5.02,0,9.08-4.07,9.08-9.08v-17.02c0-.66-.07-1.29-.2-1.91l-5.83,2.72Z"/>
      <path class="cls-6" d="M159.12,490.29c-12.63,0-22.87,10.6-22.87,23.67l23.27-23.66c-.13,0-.26-.01-.39-.01Z"/>
      <path class="cls-22" d="M156.45,480.41h-15.34c-5.02,0-9.08,4.07-9.08,9.08v17.02c0,3.11,1.57,5.86,3.96,7.5l.25-.04c0-13.07,10.24-23.67,22.87-23.67,.13,0,.26,0,.39,.01l4.98-5.06c-1.52-2.88-4.55-4.84-8.03-4.84Z"/>
      <path class="cls-43" d="M470.85,492.29l-4.03-5.4c-40.77,31.32-91.26,49.85-145.94,49.85s-104.82-18.4-145.51-49.53v13.61c41.3,29.62,91.45,46.98,145.51,46.98s103.4-17.08,144.51-46.27c.7-3.7,2.68-6.94,5.46-9.25Z"/>
      <path class="cls-21" d="M487.1,526.03h0c-7.59,0-13.74-6.15-13.74-13.74v-1.89c0-7.59,6.15-13.74,13.74-13.74h0c7.59,0,13.74,6.15,13.74,13.74v1.89c0,7.59-6.15,13.74-13.74,13.74Z"/>
      <path class="cls-22" d="M478.32,522.82c0-10.89,8.83-19.71,19.71-19.71,.94,0,1.87,.07,2.77,.2-.32-3.72-3.44-6.65-7.24-6.65h-12.93c-4.02,0-7.27,3.26-7.27,7.27v14.83c0,3.29,2.18,6.06,5.18,6.96-.14-.95-.21-1.91-.21-2.9Z"/>
      <path class="cls-6" d="M499.91,503.2c-.62-.06-1.24-.09-1.88-.09-10.89,0-19.71,8.83-19.71,19.71,0,.38,.01,.76,.03,1.14,2.54-10.57,10.98-18.77,21.55-20.76Z"/>
      <path class="cls-43" d="M494.26,488.63h.49c3.47,0,6.67,1.11,9.28,2.99,3.48-3.28,6.88-6.64,10.19-10.09h-12.4c-2.47,2.42-5,4.78-7.56,7.1Z"/>
      <g>
        <path class="cls-14" d="M34.23,352.64l17.17-16.24v-49.74c-15.27,0-30.98,4.06-30.98,40.88v57.81c0,17.04,2.64,28.44,41.77,49.56v-67.21c-11.18-3.03-20.84-8.2-27.97-15.05Z"/>
        <g>
          <path class="cls-41" d="M62.2,367.7c-9.08-2.46-17.15-6.33-23.68-11.37,6.53,5.04,14.6,8.92,23.68,11.38h0Z"/>
          <path class="cls-41" d="M35.63,353.94c.91,.81,1.86,1.6,2.85,2.36-.99-.76-1.94-1.55-2.85-2.36Z"/>
          <path class="cls-41" d="M51.4,287.43c-18.33,5.88-30.22,17.56-30.22,35.69,0,12.17,5.38,22.7,14.37,30.74-.45-.4-.89-.81-1.32-1.22l17.17-16.24v-48.97h0Z"/>
        </g>
        <path class="cls-37" d="M62.2,375.45v-7.74c-9.08-2.46-17.15-6.34-23.68-11.38-.01-.01-.02-.02-.04-.03-.99-.76-1.94-1.55-2.85-2.36-.03-.03-.06-.05-.08-.08-8.99-8.04-14.37-18.57-14.37-30.74,0-18.13,11.89-29.81,30.22-35.69v-.77c-15.27,0-30.98,4.06-30.98,40.88v3.66c0,22.21,16.21,35.86,41.77,44.26Z"/>
        <path class="cls-64" d="M28.73,355.19v21.46c0,15.33,2.26,25.97,33.46,43.71v-44.91c-14.66-4.81-26.25-11.36-33.46-20.26Z"/>
        <path class="cls-9" d="M62.2,434.91v-7.47c-6.94-2.69-18.51-8.16-28.71-17.67-6.49-6.05-10.45-12.56-12.87-18.14,1.07,13.83,7.43,24.86,41.57,43.28Z"/>
        <path class="cls-8" d="M51.4,297.39c-4.85,1.3-15.39,5.26-21.28,16.06v34.71c1.26,1.56,2.63,3.06,4.11,4.48l17.17-16.24v-39.01h0Z"/>
        <path class="cls-32" d="M51.4,322.9c-11.28-.67-17.85,.23-21.28,1.06v24.2c1.26,1.56,2.63,3.06,4.11,4.48l17.17-16.24v-13.5h0Z"/>
      </g>
      <path class="cls-19" d="M307.84,96.55c2.78-3.84,7.77-7.9,14.62-7.9,9.85,0,17.84,7.99,17.84,17.84,0,1.85-.28,3.63-.8,5.31v.02h64.85c2.4-2.05,3.93-5.09,3.93-8.5,0-6.17-5-11.17-11.16-11.17h-24.89s-13.86-22.64-46.62-24.19c-10.15-.67-23.1,2.22-34.48,5.05-13,3.23-23.82,4.81-23.82,4.81-10.33,1.53-17.63,10.59-17.63,20.81,0,11.56,9.61,18.92,20.59,18.92,10.99,0,24.94-3.59,37.57-21.01Z"/>
      <path class="cls-15" d="M307.84,95.36c2.78-3.84,7.77-7.9,14.62-7.9,9.85,0,17.84,7.99,17.84,17.84,0,1.85-.28,3.63-.8,5.31v.02h64.85c2.4-2.05,3.93-5.09,3.93-8.5,0-6.17-5-11.17-11.16-11.17h-24.89s-13.86-22.64-46.62-24.19c-10.15-.67-23.1,2.22-34.48,5.05-13,3.23-23.82,4.81-23.82,4.81-10.33,1.53-17.63,10.59-17.63,20.81,0,11.56,9.61,18.92,20.59,18.92,10.99,0,24.94-3.59,37.57-21.01Z"/>
      <path class="cls-15" d="M488.19,66.57c-4.99,.33-9.86,.71-14.54,1.12l-3.76,.36c53.27,44.09,89.67,111.25,96.73,187.86,5.43-6.64,13.1-11.42,21.87-13.2-9.86-68.19-44.21-128.26-93.64-170.62"/>
      <path class="cls-37" d="M83.75,207.51c7.51-28.1,19.09-54.3,33.99-77.79-5.34-3.33-10.24-6.62-14.78-9.88-15.97,22.09-28.78,46.7-37.76,73.13,7.63,2.77,14.11,7.91,18.55,14.54Z"/>
      <path class="cls-37" d="M117.7,207.51c6.84-22.21,16.6-42.93,28.78-61.62-4.67-2.39-9.1-4.75-13.3-7.09-13.26,20.82-23.73,43.94-30.81,68.71h15.33Z"/>
      <circle class="cls-31" cx="623.87" cy="93.24" r="34.12"/>
      <path class="cls-36" d="M615.51,61.49c-1.84,0-3.64,.18-5.38,.52-12,5.29-20.38,17.28-20.38,31.24,0,15.78,10.71,29.05,25.26,32.96,2.8-16.81,13.79-30.84,28.74-37.84-.74-14.96-13.1-26.87-28.24-26.87Z"/>
      <path class="cls-10" d="M603.69,120.76c1.68-2.41,3.39-4.65,5.11-6.73-4.51-5.76-7.17-10.88-5.75-13.89,3.62-7.68,17.86-17.49,25.22-22.19-2.69-7.18-9.61-12.29-17.72-12.29-2.79,0-5.87,.61-8.9,1.69-7.29,6.26-11.91,15.53-11.91,25.89,0,11.29,5.49,21.3,13.94,27.51Z"/>
      <path class="cls-66" d="M615.78,122.47c-.3,1.23-.56,2.47-.77,3.73,2.82,.76,5.79,1.16,8.85,1.16s6.13-.42,8.99-1.2c-.52,.02-1.04,.04-1.56,.04-5.59,0-10.86-1.34-15.52-3.73Z"/>
      <path class="cls-62" d="M615.06,126.21c-14.57-3.88-25.31-17.17-25.31-32.97,0-7.09,2.17-13.67,5.87-19.13-1.95-.7-3.98-1.35-6.09-1.95-6.45,6.21-10.46,14.92-10.46,24.58,0,18.21,14.26,33.08,32.22,34.06,1.35-1.53,2.6-3.06,3.77-4.6Z"/>
      <path class="cls-15" d="M422.58,57.39c11.39-1.61,20.54-2.88,27.88-3.89h0c7.18-.98,12.62-1.71,16.71-2.25C424.99,23.56,374.78,7.48,320.88,7.48c-63.68,0-122.22,22.44-168.44,59.97,2.35,1.49,6.2,3.73,12.24,6.77,42.56-38,96.94-60.8,156.2-60.8,42.61,0,82.7,11.8,117.68,32.55-13.65,1.07-24.57,2.41-32.05,3.47-26.46-11.74-55.36-18.21-85.64-18.21-52.03,0-100,19.09-138.46,51.25,4.75,2.08,10.14,4.35,16.25,6.82,34.67-26.5,76.79-42.04,122.21-42.04,101.79,0,187.03,78.03,208.98,182.7,5.77,3.85,11.45,7.79,16.98,11.8-12.2-81.05-59.56-149.05-124.25-184.38Z"/>
      <path class="cls-69" d="M606.51,356.92c2.17-2.06,4.16-4.51,5.81-7.41-15.7-41.6-72.6-125.08-278.7-192.55C56.66,66.29,102.36,34.21,102.36,34.21c-8.03,.92-14.89,5.24-18.46,9.9-41.84,54.64,137.92,120.9,243.18,154.62,184.76,59.19,254.99,126.32,279.43,158.19Z"/>
      <path class="cls-35" d="M146.48,145.88c-12.18,18.69-21.94,39.41-28.78,61.62h55.66v36.16h25.3v52.59h87.02l35.29-31.04,9.21,8.03,26.27,23.02h147.31c-60.66-37.37-115.98-60.31-217.86-94.56-62.53-21.02-106.86-39.13-139.43-55.81Z"/>
      <path class="cls-28" d="M285.91,201.7c-62.53-21.02-106.86-39.13-139.43-55.81-10.63,16.3-19.41,34.16-26.02,53.19l-1.73,8.43h54.62v36.16h25.3v33.48c8.26-1.01,25.45-3.18,37.95-5.36v-15.44h-9.11v-25.2s9.87,4.02,36.51,8.57c26.64,4.55,48.02,2.97,48.02,2.97h8.76v-29.05c-11.02-3.84-22.61-7.81-34.89-11.93Z"/>
      <rect class="cls-33" x="290.26" y="379.21" width="18.91" height="86.58"/>
      <rect class="cls-4" x="290.26" y="379.21" width="18.91" height="15.11"/>
      <rect class="cls-33" x="332.43" y="379.21" width="18.91" height="86.58"/>
      <rect class="cls-4" x="332.43" y="379.21" width="18.91" height="15.11"/>
      <g>
        <rect class="cls-58" x="369.06" y="377.3" width="14.25" height="88.49"/>
        <rect class="cls-33" x="369.06" y="377.3" width="9.11" height="88.49"/>
        <rect class="cls-4" x="369.06" y="453.32" width="9.11" height="12.67"/>
      </g>
      <g>
        <rect class="cls-58" x="258.29" y="377.3" width="14.25" height="88.49"/>
        <rect class="cls-33" x="263.44" y="377.3" width="9.11" height="88.49"/>
        <rect class="cls-4" x="263.44" y="453.32" width="9.11" height="12.67"/>
      </g>
      <path class="cls-65" d="M579.56,367.86v70.91c37.61-22.67,37.61-29.2,37.61-45.38v-64.06c0,35.34-33.45,38.53-37.61,38.53Z"/>
      <path class="cls-1" d="M579.56,367.86v7.76c30.82-7.76,37.61-15.25,37.61-38.53v-7.76c0,35.34-33.45,38.53-37.61,38.53Z"/>
      <path class="cls-49" d="M606.16,365.38v45.04c11.01-9.78,11.01-16.27,11.01-27.01v-46.32c0,13.94-2.44,22.22-11.01,28.29Z"/>
      <path class="cls-40" d="M579.56,435.6v3.17c37.61-22.67,37.61-29.2,37.61-45.38v-3.17c0,16.18,0,22.71-37.61,45.38Z"/>
      <path class="cls-37" d="M233.92,213.84c-28.59-10.57-47.13-20.02-66.78-35.77,4.75-6.33,12.83-10.82,19.14-11.88,16.37,8.71,45.93,23.82,56.23,31.81-1.19,6.2-4.88,11.88-8.58,15.84Z"/>
      <path class="cls-44" d="M233.94,209.91c-14.88-5.87-45.11-21.14-56.62-29.3,2.56-3.41,5.69-6.7,8.71-9.01,8.81,4.69,47.51,24.11,53.06,28.41-.64,3.34-3.16,7.77-5.15,9.9Z"/>
      <path class="cls-37" d="M173.36,212.84v25.34c30.69,4.15,59.29,7.47,59.29,7.47v-18.35c-24.45-6.41-39.77-10.47-54.64-13.46-1.6-.32-3.14-.65-4.65-1Z"/>
      <path class="cls-38" d="M125.57,185.65c-2.94,7.11-5.57,14.4-7.87,21.86h37.57c-17.74-6.68-25.94-15.05-29.7-21.86Z"/>
      <path class="cls-46" d="M125.57,185.65c1.58,2.86,3.94,5.99,7.46,9.16,6.15-13.81,12.02-24.48,12.02-24.48h-12.52c-2.47,4.98-4.81,10.13-6.96,15.33Z"/>
      <path class="cls-37" d="M133.03,194.8c-1.8,4.03-3.61,8.33-5.32,12.7h27.56c-10.29-3.88-17.37-8.32-22.24-12.7Z"/>
      <path class="cls-44" d="M173.36,233.82c32.17,5.82,56.3,7.95,56.3,7.95v-10.18c-8.24-2.61-43.92-10.91-56.3-13.77v16h0Z"/>
      <path class="cls-37" d="M224.63,255.15h-25.97v21.99c5.82-.71,16.06-2,25.97-3.46v-18.54Z"/>
      <path class="cls-44" d="M198.66,273.92c8.94-1.15,22.7-3.03,22.7-3.03v-12.27h-22.7v15.3Z"/>
      <path class="cls-45" d="M343.12,253.37s13.34,5.54,22.57,2.57c7.6-2.44,14.25-10.3,16.63-16.63,0,0,7.92,35.17-11.68,40.75s-37.02-19.17-37.02-19.17l9.5-7.52Z"/>
      <path class="cls-28" d="M415.17,271.38l14.06,1.98-1.39,13.66s12.75,2.42,34.04,9.23h31.64c-25.74-15.86-50.53-29.12-78.32-41.75l-.04,16.88Z"/>
      <path class="cls-56" d="M453.83,273.49c-17.72-2.51-25.7-2.7-25.7-2.7v2.42c14.08,1.91,29.36,4.91,37.23,6.54-3.82-2.13-7.66-4.21-11.52-6.26Z"/>
      <path class="cls-15" d="M606.51,356.91c2.17-2.06,4.15-4.51,5.81-7.41-15.7-41.6-72.6-125.08-278.7-192.55C56.66,66.29,102.36,34.21,102.36,34.21c-8.03,.92-14.89,5.24-18.46,9.9-1.97,2.57-3.45,5.17-4.47,7.8-2.9,21.72,37.43,63.33,257.74,135.54,72.78,23.85,127.92,55.54,169.46,88.19,56.89,33.25,85.88,63.04,99.87,81.28Z"/>
      <path class="cls-60" d="M605.72,297.64c6.78-3.31,11.45-10.27,11.45-18.33,0-11.26-9.13-20.39-20.39-20.39-7.22,0-13.57,3.76-17.19,9.43,10.43,9.65,19.39,19.49,26.12,29.28Z"/>
      <path class="cls-20" d="M616.79,283.26c-1.84-9.37-10.09-16.44-20-16.44-5.16,0-9.86,1.92-13.45,5.07,8.84,8.52,16.47,17.15,22.38,25.75,5.64-2.76,9.82-8.04,11.07-14.38Z"/>
      <path class="cls-17" d="M613.44,287.21c-5.87,0-11.61-.59-17.15-1.7,3.49,4.04,6.65,8.09,9.43,12.14,4.43-2.16,7.96-5.9,9.87-10.47-.71,.02-1.43,.03-2.15,.03Z"/>
      <circle class="cls-33" cx="52.3" cy="228.54" r="19.79"/>
      <path class="cls-58" d="M71.87,225.52c-1.45-9.5-9.66-16.78-19.57-16.78-10.93,0-19.79,8.86-19.79,19.79,0,.47,.02,.93,.05,1.4,4.9,3.02,10.66,4.77,16.83,4.77,8.75,0,16.68-3.5,22.47-9.18Z"/>
      <g>
        <path class="cls-57" d="M71.99,230.61c-.91-7.91-7.63-14.06-15.78-14.06-8.78,0-15.89,7.11-15.89,15.89,0,8.16,6.15,14.87,14.06,15.78,9.28-.97,16.65-8.34,17.61-17.61Z"/>
        <path class="cls-33" d="M40.31,232.44c0,.24,0,.48,.02,.72,2.07,.98,4.38,1.54,6.82,1.54,8.78,0,15.89-7.11,15.89-15.89,0-.24,0-.48-.02-.72-2.07-.98-4.38-1.54-6.82-1.54-8.78,0-15.89,7.11-15.89,15.89Z"/>
      </g>
      <g>
        <polygon class="cls-27" points="271.15 309 102.07 309 68.73 340.28 235.63 340.28 271.15 309"/>
        <path class="cls-70" d="M245.42,309c-11.44,11.64-19.57,24.84-23.2,31.28h13.42l35.52-31.28h-25.74Z"/>
        <polygon class="cls-48" points="102.56 340.28 129.62 314.15 119.73 314.15 92.77 340.28 102.56 340.28"/>
        <polygon class="cls-55" points="144.72 340.28 162.77 317.12 140.67 340.28 144.72 340.28"/>
        <polygon class="cls-55" points="186.32 340.28 192.19 340.28 211.01 314.15 186.32 340.28"/>
        <path class="cls-37" d="M245.42,309H102.07l-33.34,31.28h6.27l26.79-26.13H240.64c1.52-1.73,3.11-3.46,4.77-5.15Z"/>
      </g>
      <polygon class="cls-27" points="381.41 310.37 535.66 310.37 566.08 338.91 413.82 338.91 381.41 310.37"/>
      <path class="cls-70" d="M404.89,310.37c10.43,10.61,17.85,22.66,21.17,28.53h-12.24l-32.41-28.53h23.48Z"/>
      <polygon class="cls-48" points="550.26 338.91 525.57 315.07 534.6 315.07 559.19 338.91 550.26 338.91"/>
      <polygon class="cls-55" points="504.34 338.91 487.88 317.77 508.03 338.91 504.34 338.91"/>
      <polygon class="cls-55" points="466.39 338.91 461.03 338.91 443.87 315.07 466.39 338.91"/>
      <path class="cls-37" d="M404.89,310.37h130.77l30.41,28.53h-5.72l-24.44-23.84h-126.67c-1.39-1.58-2.84-3.15-4.36-4.69Z"/>
      <polygon class="cls-37" points="383.31 332.16 320.8 279.7 258.29 332.16 258.29 370.57 383.31 370.57 383.31 332.16"/>
      <polygon class="cls-16" points="264.02 336.97 264.02 370.57 383.31 370.57 383.31 332.16 326.53 284.51 264.02 336.97"/>
      <path class="cls-2" d="M320.8,279.7l-62.51,52.46h0l5.73,4.81,56.78-47.66s2.8,6.69,13.61,12.85c11.98,6.83,48.9,39.61,48.9,39.61v-9.61l-62.51-52.46Z"/>
      <polygon class="cls-12" points="62.2 252.38 62.2 326.1 94 296.26 131.68 296.26 131.68 255.45 187.51 254.06 187.51 252.38 62.2 252.38"/>
      <polygon class="cls-37" points="73.88 315.14 94 296.26 125.3 296.26 125.3 259.95 73.88 259.95 73.88 315.14"/>
      <path class="cls-5" d="M187.51,296.26v-42.2l-55.83,1.39v40.81h55.83Zm-9.5-5.53h-9.3v-2.16h9.3v2.16Zm-26.29-26.27h28.57v2.97h-28.57v-2.97Zm0,11.78h28.57v2.97h-28.57v-2.97Z"/>
      <polygon class="cls-37" points="62.2 252.38 71.86 259.58 71.86 258.05 127.2 258.05 127.2 296.26 131.68 296.26 131.68 255.45 187.51 254.06 187.51 252.38 62.2 252.38"/>
      <path class="cls-30" d="M190.26,476.75c37,26.78,82.03,42.5,130.62,42.5s93.62-15.72,130.62-42.5H190.26Z"/>
      <path class="cls-7" d="M440.14,484.46c-33.8-1.87-72.67-2.93-114.03-2.93-45.32,0-87.66,1.28-123.61,3.49,34.51,21.72,75.03,34.23,118.38,34.23,43.72,0,84.56-12.73,119.26-34.79h0Z"/>
      <path class="cls-61" d="M244.18,494.76c8.31,4.12,16.98,7.6,25.96,10.36,16.83-.6,34.8-.92,53.46-.92,16.85,0,33.14,.26,48.54,.75,8.91-2.77,17.51-6.24,25.75-10.35-23.38-.68-48.35-1.04-74.29-1.04-27.84,0-54.57,.42-79.42,1.2Z"/>
      <path class="cls-18" d="M326.11,481.53c41.35,0,80.22,1.06,114.03,2.93-6.73-4.41-15.45-7.71-29.05-7.71H251.49c-13.04,0-39.55,1.52-48.99,8.27,35.95-2.21,78.29-3.49,123.61-3.49Z"/>
      <path class="cls-61" d="M411.8,486.85c-29.22,.48-58.62,.72-88.2,.72-31.47,0-62.74-.28-93.8-.82l18.88-6.11h144.4l18.72,6.21Z"/>
      <path class="cls-37" d="M320.98,220.89c-14.9,0-26.98,12.08-26.98,26.98,0,10.29,5.77,19.24,14.24,23.79-9.99,8.85-23.14,20.17-37.18,31.6-20.56,16.72-35.65,31.3-41.4,37.02h5.97l76.21-67.02h0l9.14-8.05,9.21,8.03c10.94-3.44,17.77-13.29,17.77-25.37,0-14.9-12.08-26.98-26.98-26.98Z"/>
      <path class="cls-21" d="M159.51,490.3l4.98-5.06h0c-1.52-2.88-4.55-4.84-8.03-4.84h-15.34c-5.02,0-9.08,4.07-9.08,9.08v17.02c0,5.02,4.07,9.08,9.08,9.08h15.34c5.02,0,9.08-4.07,9.08-9.08v-17.02c0-.66-.07-1.29-.2-1.91l-5.83,2.72Z"/>
      <path class="cls-6" d="M159.12,490.29c-12.63,0-22.87,10.6-22.87,23.67l23.27-23.66c-.13,0-.26-.01-.39-.01Z"/>
      <path class="cls-22" d="M156.45,480.41h-15.34c-5.02,0-9.08,4.07-9.08,9.08v17.02c0,3.11,1.57,5.86,3.96,7.5l.25-.04c0-13.07,10.24-23.67,22.87-23.67,.13,0,.26,0,.39,.01l4.98-5.06c-1.52-2.88-4.55-4.84-8.03-4.84Z"/>
      <path class="cls-43" d="M470.85,492.29l-4.03-5.4c-40.77,31.32-91.26,49.85-145.94,49.85s-104.82-18.4-145.51-49.53v13.61c41.3,29.62,91.45,46.98,145.51,46.98s103.4-17.08,144.51-46.27c.7-3.7,2.68-6.94,5.46-9.25Z"/>
      <path class="cls-21" d="M487.1,526.03h0c-7.59,0-13.74-6.15-13.74-13.74v-1.89c0-7.59,6.15-13.74,13.74-13.74h0c7.59,0,13.74,6.15,13.74,13.74v1.89c0,7.59-6.15,13.74-13.74,13.74Z"/>
      <path class="cls-22" d="M478.32,522.82c0-10.89,8.83-19.71,19.71-19.71,.94,0,1.87,.07,2.77,.2-.32-3.72-3.44-6.65-7.24-6.65h-12.93c-4.02,0-7.27,3.26-7.27,7.27v14.83c0,3.29,2.18,6.06,5.18,6.96-.14-.95-.21-1.91-.21-2.9Z"/>
      <path class="cls-6" d="M499.91,503.2c-.62-.06-1.24-.09-1.88-.09-10.89,0-19.71,8.83-19.71,19.71,0,.38,.01,.76,.03,1.14,2.54-10.57,10.98-18.77,21.55-20.76Z"/>
      <path class="cls-43" d="M494.26,488.63h.49c3.47,0,6.67,1.11,9.28,2.99,3.48-3.28,6.88-6.64,10.19-10.09h-12.4c-2.47,2.42-5,4.78-7.56,7.1Z"/>
      <g>
        <path class="cls-14" d="M34.23,352.64l17.17-16.24v-49.74c-15.27,0-30.98,4.06-30.98,40.88v57.81c0,17.04,2.64,28.44,41.77,49.56v-67.21c-11.18-3.03-20.84-8.2-27.97-15.05Z"/>
        <g>
          <path class="cls-41" d="M62.2,367.7c-9.08-2.46-17.15-6.33-23.68-11.37,6.53,5.04,14.6,8.92,23.68,11.38h0Z"/>
          <path class="cls-41" d="M35.63,353.94c.91,.81,1.86,1.6,2.85,2.36-.99-.76-1.94-1.55-2.85-2.36Z"/>
          <path class="cls-41" d="M51.4,287.43c-18.33,5.88-30.22,17.56-30.22,35.69,0,12.17,5.38,22.7,14.37,30.74-.45-.4-.89-.81-1.32-1.22l17.17-16.24v-48.97h0Z"/>
        </g>
        <path class="cls-37" d="M62.2,375.45v-7.74c-9.08-2.46-17.15-6.34-23.68-11.38-.01-.01-.02-.02-.04-.03-.99-.76-1.94-1.55-2.85-2.36-.03-.03-.06-.05-.08-.08-8.99-8.04-14.37-18.57-14.37-30.74,0-18.13,11.89-29.81,30.22-35.69v-.77c-15.27,0-30.98,4.06-30.98,40.88v3.66c0,22.21,16.21,35.86,41.77,44.26Z"/>
        <path class="cls-64" d="M28.73,355.19v21.46c0,15.33,2.26,25.97,33.46,43.71v-44.91c-14.66-4.81-26.25-11.36-33.46-20.26Z"/>
        <path class="cls-9" d="M62.2,434.91v-7.47c-6.94-2.69-18.51-8.16-28.71-17.67-6.49-6.05-10.45-12.56-12.87-18.14,1.07,13.83,7.43,24.86,41.57,43.28Z"/>
        <path class="cls-8" d="M51.4,297.39c-4.85,1.3-15.39,5.26-21.28,16.06v34.71c1.26,1.56,2.63,3.06,4.11,4.48l17.17-16.24v-39.01h0Z"/>
        <path class="cls-32" d="M51.4,322.9c-11.28-.67-17.85,.23-21.28,1.06v24.2c1.26,1.56,2.63,3.06,4.11,4.48l17.17-16.24v-13.5h0Z"/>
      </g>
      <path class="cls-19" d="M307.84,96.55c2.78-3.84,7.77-7.9,14.62-7.9,9.85,0,17.84,7.99,17.84,17.84,0,1.85-.28,3.63-.8,5.31v.02h64.85c2.4-2.05,3.93-5.09,3.93-8.5,0-6.17-5-11.17-11.16-11.17h-24.89s-13.86-22.64-46.62-24.19c-10.15-.67-23.1,2.22-34.48,5.05-13,3.23-23.82,4.81-23.82,4.81-10.33,1.53-17.63,10.59-17.63,20.81,0,11.56,9.61,18.92,20.59,18.92,10.99,0,24.94-3.59,37.57-21.01Z"/>
      <path class="cls-15" d="M307.84,95.36c2.78-3.84,7.77-7.9,14.62-7.9,9.85,0,17.84,7.99,17.84,17.84,0,1.85-.28,3.63-.8,5.31v.02h64.85c2.4-2.05,3.93-5.09,3.93-8.5,0-6.17-5-11.17-11.16-11.17h-24.89s-13.86-22.64-46.62-24.19c-10.15-.67-23.1,2.22-34.48,5.05-13,3.23-23.82,4.81-23.82,4.81-10.33,1.53-17.63,10.59-17.63,20.81,0,11.56,9.61,18.92,20.59,18.92,10.99,0,24.94-3.59,37.57-21.01Z"/>
      <circle class="cls-31" cx="623.87" cy="93.24" r="34.12"/>
      <path class="cls-36" d="M615.51,61.49c-1.84,0-3.64,.18-5.38,.52-12,5.29-20.38,17.28-20.38,31.24,0,15.78,10.71,29.05,25.26,32.96,2.8-16.81,13.79-30.84,28.74-37.84-.74-14.96-13.1-26.87-28.24-26.87Z"/>
      <path class="cls-10" d="M603.69,120.76c1.68-2.41,3.39-4.65,5.11-6.73-4.51-5.76-7.17-10.88-5.75-13.89,3.62-7.68,17.86-17.49,25.22-22.19-2.69-7.18-9.61-12.29-17.72-12.29-2.79,0-5.87,.61-8.9,1.69-7.29,6.26-11.91,15.53-11.91,25.89,0,11.29,5.49,21.3,13.94,27.51Z"/>
      <path class="cls-66" d="M615.78,122.47c-.3,1.23-.56,2.47-.77,3.73,2.82,.76,5.79,1.16,8.85,1.16s6.13-.42,8.99-1.2c-.52,.02-1.04,.04-1.56,.04-5.59,0-10.86-1.34-15.52-3.73Z"/>
      <path class="cls-62" d="M615.06,126.21c-14.57-3.88-25.31-17.17-25.31-32.97,0-7.09,2.17-13.67,5.87-19.13-1.95-.7-3.98-1.35-6.09-1.95-6.45,6.21-10.46,14.92-10.46,24.58,0,18.21,14.26,33.08,32.22,34.06,1.35-1.53,2.6-3.06,3.77-4.6Z"/>
      <g>
        <g>
          <rect class="cls-13" x="396.92" y="351.37" width="170.26" height="95.82"/>
          <rect class="cls-26" x="460.64" y="424.43" width="1.22" height="2.35"/>
          <path class="cls-52" d="M567.18,447.18v-79.32h-156.33v71.6h139.51c7.42,0,8.51,7.72,8.51,7.72h8.32Z"/>
          <path class="cls-58" d="M571.87,351.37h-174.94v5.74h181.54s-.73-5.74-6.6-5.74Z"/>
          <rect class="cls-29" x="410.85" y="367.86" width="156.33" height="12.41"/>
          <g>
            <rect class="cls-26" x="475.52" y="367.86" width="76.22" height="50.15"/>
            <rect class="cls-24" x="479.21" y="374.07" width="68.83" height="43.95"/>
            <rect class="cls-64" x="479.21" y="397.43" width="68.83" height="20.59"/>
            <rect class="cls-24" x="479.21" y="394.92" width="68.83" height="2.51"/>
            <rect class="cls-11" x="473.87" y="422.93" width="77.87" height="3.96"/>
            <rect class="cls-26" x="475.52" y="426.83" width="77.44" height="5.7"/>
            <rect class="cls-39" x="473.87" y="422.93" width="77.87" height="1.35"/>
            <rect class="cls-9" x="479.21" y="380.27" width="68.83" height="10.16"/>
            <path class="cls-63" d="M531.35,418.02v-23.1h16.7v-4.49h-16.7v-16.37h-4.62v16.37h-27.71v-16.37h-6.07v16.37h-13.73v4.49h13.73v23.1h-20.19v4.92h80.21v-4.92h-21.61Zm-32.34,0v-23.1h27.71v23.1h-27.71Z"/>
            <rect class="cls-42" x="516.2" y="377.99" width="10.52" height="40.02"/>
            <rect class="cls-39" x="516.2" y="413.53" width="10.52" height="4.49"/>
          </g>
          <g>
            <rect class="cls-26" x="417.51" y="367.86" width="43.03" height="50.15"/>
            <rect class="cls-24" x="421.21" y="374.07" width="34.84" height="43.95"/>
            <rect class="cls-64" x="421.21" y="380.27" width="34.84" height="37.75"/>
            <line class="cls-54" x1="421.21" y1="390.43" x2="421.21" y2="394.92"/>
            <rect class="cls-11" x="415.86" y="422.93" width="44.78" height="3.96"/>
            <rect class="cls-39" x="415.86" y="422.93" width="44.78" height="1.35"/>
            <rect class="cls-9" x="421.21" y="380.27" width="34.84" height="10.16"/>
            <rect class="cls-24" x="421.21" y="394.92" width="34.84" height="2.51"/>
            <polygon class="cls-63" points="441.01 418.02 441.01 394.92 456.05 394.92 456.05 390.43 441.01 390.43 441.01 374.07 434.93 374.07 434.93 390.43 421.21 390.43 421.21 394.92 434.93 394.92 434.93 418.02 414.74 418.02 414.74 422.93 461.76 422.93 461.76 418.02 441.01 418.02"/>
          </g>
          <polygon class="cls-26" points="410.85 426.83 410.85 371.64 410.85 370.57 410.85 365.93 396.92 365.93 396.92 371.64 403.77 371.64 403.77 426.83 403.77 429.68 403.77 432.53 461.86 432.53 461.86 426.83 410.85 426.83"/>
          <rect class="cls-58" x="396.92" y="459.66" width="181.54" height="6.34"/>
        </g>
        <g>
          <rect class="cls-13" x="71.95" y="351.37" width="170.26" height="95.82"/>
          <rect class="cls-26" x="177.27" y="424.43" width="1.22" height="2.35"/>
          <path class="cls-52" d="M71.95,447.18v-79.32H228.28v71.6H88.78c-7.42,0-8.51,7.72-8.51,7.72h-8.32Z"/>
          <path class="cls-58" d="M67.26,351.37H242.21v5.74H60.66s.73-5.74,6.6-5.74Z"/>
          <rect class="cls-29" x="71.95" y="367.86" width="156.33" height="12.41"/>
          <g>
            <rect class="cls-26" x="87.39" y="367.86" width="76.22" height="50.15"/>
            <rect class="cls-24" x="91.09" y="374.07" width="68.83" height="43.95"/>
            <rect class="cls-64" x="91.09" y="397.43" width="68.83" height="20.59"/>
            <rect class="cls-24" x="91.09" y="394.92" width="68.83" height="2.51"/>
            <rect class="cls-11" x="87.39" y="422.93" width="77.87" height="3.96"/>
            <rect class="cls-26" x="86.17" y="426.83" width="77.44" height="5.7"/>
            <rect class="cls-39" x="87.39" y="422.93" width="77.87" height="1.35"/>
            <rect class="cls-9" x="91.09" y="380.27" width="68.83" height="10.16"/>
            <path class="cls-63" d="M86.17,418.02v4.92h80.21v-4.92h-20.19v-23.1h13.73v-4.49h-13.73v-16.37h-6.07v16.37h-27.71v-16.37h-4.62v16.37h-16.7v4.49h16.7v23.1h-21.61Zm26.24,0v-23.1h27.71v23.1h-27.71Z"/>
            <rect class="cls-42" x="112.41" y="377.99" width="10.52" height="40.02"/>
            <rect class="cls-39" x="112.41" y="413.53" width="10.52" height="4.49"/>
          </g>
          <g>
            <rect class="cls-26" x="178.59" y="367.86" width="43.03" height="50.15"/>
            <rect class="cls-24" x="183.08" y="374.07" width="34.84" height="43.95"/>
            <rect class="cls-64" x="183.08" y="380.27" width="34.84" height="37.75"/>
            <line class="cls-54" x1="217.92" y1="390.43" x2="217.92" y2="394.92"/>
            <rect class="cls-11" x="178.49" y="422.93" width="44.77" height="3.96"/>
            <rect class="cls-39" x="178.49" y="422.93" width="44.77" height="1.35"/>
            <rect class="cls-9" x="183.08" y="380.27" width="34.84" height="10.16"/>
            <rect class="cls-24" x="183.08" y="394.92" width="34.84" height="2.51"/>
            <polygon class="cls-63" points="198.12 418.02 198.12 394.92 183.08 394.92 183.08 390.43 198.12 390.43 198.12 374.07 204.2 374.07 204.2 390.43 217.92 390.43 217.92 394.92 204.2 394.92 204.2 418.02 224.39 418.02 224.39 422.93 177.37 422.93 177.37 418.02 198.12 418.02"/>
          </g>
          <polygon class="cls-26" points="228.28 426.83 228.28 371.64 228.28 370.57 228.28 365.93 242.21 365.93 242.21 371.64 235.36 371.64 235.36 426.83 235.36 429.68 235.36 432.53 177.27 432.53 177.27 426.83 228.28 426.83"/>
          <rect class="cls-58" x="60.66" y="459.66" width="181.54" height="6.34"/>
        </g>
      </g>
      <rect class="cls-53" x="106.48" y="236.14" width="47.51" height="5.63"/>
      <polygon class="cls-23" points="87.34 220.89 87.34 241.77 90.51 241.77 90.51 225.62 156.63 225.62 156.63 241.77 159.6 241.77 159.6 220.89 87.34 220.89"/>
      <path class="cls-50" d="M93.41,234.7v7.07h4.75c0-4.04-4.75-7.07-4.75-7.07Z"/>
      <polygon class="cls-51" points="87.34 222.29 87.34 241.77 90.51 241.77 90.51 225.7 87.34 222.29"/>
      <path class="cls-51" d="M156.63,225.91v15.86h2.97v-19.57c-.9,1.15-2.07,2.6-2.97,3.7Z"/>
      <g>
        <g>
          <rect class="cls-13" x="396.92" y="351.37" width="170.26" height="95.82"/>
          <rect class="cls-26" x="460.64" y="424.43" width="1.22" height="2.35"/>
          <path class="cls-52" d="M567.18,447.18v-79.32h-156.33v71.6h139.51c7.42,0,8.51,7.72,8.51,7.72h8.32Z"/>
          <path class="cls-58" d="M571.87,351.37h-174.94v5.74h181.54s-.73-5.74-6.6-5.74Z"/>
          <rect class="cls-29" x="410.85" y="367.86" width="156.33" height="12.41"/>
          <g>
            <rect class="cls-26" x="475.52" y="367.86" width="76.22" height="50.15"/>
            <rect class="cls-24" x="479.21" y="374.07" width="68.83" height="43.95"/>
            <rect class="cls-64" x="479.21" y="397.43" width="68.83" height="20.59"/>
            <rect class="cls-24" x="479.21" y="394.92" width="68.83" height="2.51"/>
            <rect class="cls-11" x="473.87" y="422.93" width="77.87" height="3.96"/>
            <rect class="cls-26" x="475.52" y="426.83" width="77.44" height="5.7"/>
            <rect class="cls-39" x="473.87" y="422.93" width="77.87" height="1.35"/>
            <rect class="cls-9" x="479.21" y="380.27" width="68.83" height="10.16"/>
            <path class="cls-63" d="M531.35,418.02v-23.1h16.7v-4.49h-16.7v-16.37h-4.62v16.37h-27.71v-16.37h-6.07v16.37h-13.73v4.49h13.73v23.1h-20.19v4.92h80.21v-4.92h-21.61Zm-32.34,0v-23.1h27.71v23.1h-27.71Z"/>
            <rect class="cls-42" x="516.2" y="377.99" width="10.52" height="40.02"/>
            <rect class="cls-39" x="516.2" y="413.53" width="10.52" height="4.49"/>
          </g>
          <g>
            <rect class="cls-26" x="417.51" y="367.86" width="43.03" height="50.15"/>
            <rect class="cls-24" x="421.21" y="374.07" width="34.84" height="43.95"/>
            <rect class="cls-64" x="421.21" y="380.27" width="34.84" height="37.75"/>
            <line class="cls-54" x1="421.21" y1="390.43" x2="421.21" y2="394.92"/>
            <rect class="cls-11" x="415.86" y="422.93" width="44.78" height="3.96"/>
            <rect class="cls-39" x="415.86" y="422.93" width="44.78" height="1.35"/>
            <rect class="cls-9" x="421.21" y="380.27" width="34.84" height="10.16"/>
            <rect class="cls-24" x="421.21" y="394.92" width="34.84" height="2.51"/>
            <polygon class="cls-63" points="441.01 418.02 441.01 394.92 456.05 394.92 456.05 390.43 441.01 390.43 441.01 374.07 434.93 374.07 434.93 390.43 421.21 390.43 421.21 394.92 434.93 394.92 434.93 418.02 414.74 418.02 414.74 422.93 461.76 422.93 461.76 418.02 441.01 418.02"/>
          </g>
          <polygon class="cls-26" points="410.85 426.83 410.85 371.64 410.85 370.57 410.85 365.93 396.92 365.93 396.92 371.64 403.77 371.64 403.77 426.83 403.77 429.68 403.77 432.53 461.86 432.53 461.86 426.83 410.85 426.83"/>
          <rect class="cls-58" x="396.92" y="459.66" width="181.54" height="6.34"/>
        </g>
        <g>
          <rect class="cls-13" x="71.95" y="351.37" width="170.26" height="95.82"/>
          <rect class="cls-26" x="177.27" y="424.43" width="1.22" height="2.35"/>
          <path class="cls-52" d="M71.95,447.18v-79.32H228.28v71.6H88.78c-7.42,0-8.51,7.72-8.51,7.72h-8.32Z"/>
          <path class="cls-58" d="M67.26,351.37H242.21v5.74H60.66s.73-5.74,6.6-5.74Z"/>
          <rect class="cls-29" x="71.95" y="367.86" width="156.33" height="12.41"/>
          <g>
            <rect class="cls-26" x="87.39" y="367.86" width="76.22" height="50.15"/>
            <rect class="cls-24" x="91.09" y="374.07" width="68.83" height="43.95"/>
            <rect class="cls-64" x="91.09" y="397.43" width="68.83" height="20.59"/>
            <rect class="cls-24" x="91.09" y="394.92" width="68.83" height="2.51"/>
            <rect class="cls-11" x="87.39" y="422.93" width="77.87" height="3.96"/>
            <rect class="cls-26" x="86.17" y="426.83" width="77.44" height="5.7"/>
            <rect class="cls-39" x="87.39" y="422.93" width="77.87" height="1.35"/>
            <rect class="cls-9" x="91.09" y="380.27" width="68.83" height="10.16"/>
            <path class="cls-63" d="M86.17,418.02v4.92h80.21v-4.92h-20.19v-23.1h13.73v-4.49h-13.73v-16.37h-6.07v16.37h-27.71v-16.37h-4.62v16.37h-16.7v4.49h16.7v23.1h-21.61Zm26.24,0v-23.1h27.71v23.1h-27.71Z"/>
            <rect class="cls-42" x="112.41" y="377.99" width="10.52" height="40.02"/>
            <rect class="cls-39" x="112.41" y="413.53" width="10.52" height="4.49"/>
          </g>
          <g>
            <rect class="cls-26" x="178.59" y="367.86" width="43.03" height="50.15"/>
            <rect class="cls-24" x="183.08" y="374.07" width="34.84" height="43.95"/>
            <rect class="cls-64" x="183.08" y="380.27" width="34.84" height="37.75"/>
            <line class="cls-54" x1="217.92" y1="390.43" x2="217.92" y2="394.92"/>
            <rect class="cls-11" x="178.49" y="422.93" width="44.77" height="3.96"/>
            <rect class="cls-39" x="178.49" y="422.93" width="44.77" height="1.35"/>
            <rect class="cls-9" x="183.08" y="380.27" width="34.84" height="10.16"/>
            <rect class="cls-24" x="183.08" y="394.92" width="34.84" height="2.51"/>
            <polygon class="cls-63" points="198.12 418.02 198.12 394.92 183.08 394.92 183.08 390.43 198.12 390.43 198.12 374.07 204.2 374.07 204.2 390.43 217.92 390.43 217.92 394.92 204.2 394.92 204.2 418.02 224.39 418.02 224.39 422.93 177.37 422.93 177.37 418.02 198.12 418.02"/>
          </g>
          <polygon class="cls-26" points="228.28 426.83 228.28 371.64 228.28 370.57 228.28 365.93 242.21 365.93 242.21 371.64 235.36 371.64 235.36 426.83 235.36 429.68 235.36 432.53 177.27 432.53 177.27 426.83 228.28 426.83"/>
          <rect class="cls-58" x="60.66" y="459.66" width="181.54" height="6.34"/>
        </g>
      </g>
      <rect class="cls-53" x="106.48" y="236.14" width="47.51" height="5.63"/>
      <polygon class="cls-23" points="87.34 220.89 87.34 241.77 90.51 241.77 90.51 225.62 156.63 225.62 156.63 241.77 159.6 241.77 159.6 220.89 87.34 220.89"/>
      <path class="cls-50" d="M93.41,234.7v7.07h4.75c0-4.04-4.75-7.07-4.75-7.07Z"/>
      <polygon class="cls-51" points="87.34 222.29 87.34 241.77 90.51 241.77 90.51 225.7 87.34 222.29"/>
      <path class="cls-51" d="M156.63,225.91v15.86h2.97v-19.57c-.9,1.15-2.07,2.6-2.97,3.7Z"/>
      <path class="cls-47" d="M606.51,356.91l-4.94-6.14,10.75-1.27h0c-1.22,2.61-3.15,5.08-5.81,7.41Z"/>
    </g>
  </g>
</svg>