<?xml version="1.0" encoding="utf-8"?>
<!-- Generator: Adobe Illustrator 26.4.1, SVG Export Plug-In . SVG Version: 6.00 Build 0)  -->
<svg version="1.1" xmlns="http://www.w3.org/2000/svg" xmlns:xlink="http://www.w3.org/1999/xlink" x="0px" y="0px"
	 viewBox="0 0 1125 2436" enable-background="new 0 0 1125 2436" xml:space="preserve">
<g id="Capa_1">
</g>
<g id="BaseHouse">
</g>
<g id="formas">
</g>
<g id="details">
</g>
<g id="Ventana">
</g>
<g id="Capa_6">
	<path fill="#06263A" d="M829.455,536.867c12.026-6.211,20.248-18.758,20.248-33.226c0-20.332-16.237-36.872-36.451-37.361
		c-3.014-21.036-8.35-41.322-15.734-60.594c41.934-30.429,78.853-69.061,59.096-102.015
		C834.466,266.726,751.958,268.103,694,274.166c-45.523-31.432-100.727-49.844-160.234-49.844
		c-49.557,0-96.13,12.768-136.613,35.192c-35.878-13.397-87.6-25.534-111.756,3.155c-22.706,26.966,1.845,56.052,23.038,73.837
		c-17.926,23.699-32.199,50.314-41.982,79.008c-19.996,0.732-35.982,17.17-35.982,37.345c0,15.017,8.859,27.964,21.634,33.904
		c-0.195,2.793-0.351,5.597-0.464,8.413c-10.376,2.84-25.71,11.154-32.701,35.373c-11.087,38.407,8.513,64.738,8.513,64.738
		s-14.254,17.026-4.553,40.585c5.816,14.126,26.306,29.111,39.441,37.6v32.878h51.204l23.203,19.137v4.469
		c0,11.699,9.484,21.183,21.183,21.183h14.935c4.715,0,9.069-1.542,12.588-4.147c43.102,26.658,93.909,42.048,148.312,42.048
		c54.622,0,105.62-15.512,148.833-42.369c0.094,6.784,5.619,12.256,12.426,12.256h18.61c6.865,0,12.43-5.565,12.43-12.43v-15.375
		c6.529-4.781,16.365-12.533,30.244-24.771h48.883v-27.142c22.65-13.206,46.729-32.208,44.956-52.642
		c-0.757-8.728-4.172-15.295-8.805-20.242c6.589-8.05,10.543-18.34,10.543-29.554C851.887,559.867,842.906,545.062,829.455,536.867z
		 M721.784,296.418l-7.111-6.162c0.829-0.041,1.661-0.081,2.494-0.119c47.378-2.164,100.978,1.019,117.412,23.893
		c16.533,23.012-11.327,49.733-45.704,71.675C772.631,351.698,749.711,321.395,721.784,296.418z"/>
	<g>
		<path fill="#01B4FF" d="M536.422,271.598c-45.418,0-87.538,15.535-122.213,42.037c12.433,5.033,27.849,10.893,46.919,17.619
			c69.756,24.607,94.265,29.572,173.567,63.096c27.809,11.756,71.348,33.697,110.71,59.944
			C723.449,349.629,638.217,271.598,536.422,271.598z"/>
	</g>
	<path fill="#0373C3" d="M680.729,333.005l-15.897,8.774c28.709,26.806,50.923,61.777,63.677,101.654
		c5.678,3.523,11.329,7.15,16.897,10.862C735.435,406.769,712.418,364.736,680.729,333.005z"/>
	<path fill="#064F87" d="M705.775,392.825l-35.283,18.198c7.984,4.012,16.37,8.405,24.951,13.119l22.153-8.809
		C714.026,407.573,710.076,400.062,705.775,392.825z"/>
	<path fill="#2391DD" d="M695.444,424.141c9.984,5.484,20.231,11.403,30.42,17.659l15.163-5.18
		c-2.638-9.215-5.773-18.188-9.376-26.877L695.444,424.141z"/>
	<path fill="#FFF8FA" d="M714.965,435.246l15.341-5.862c0.396-9.107-3.366-14.254-3.366-14.254l-28.243,10.809
		C704.071,428.925,709.51,432.032,714.965,435.246z"/>
	<path fill="#99E7FF" d="M643.768,398.302c1.846,0.826,3.742,1.686,5.682,2.579l25.886-15.645L643.768,398.302z"/>
	<path fill="#FCFBFB" d="M821.265,521.966c6.78-3.312,11.451-10.272,11.451-18.325c0-11.258-9.127-20.385-20.385-20.385
		c-7.225,0-13.567,3.762-17.188,9.431C805.577,502.341,814.531,512.173,821.265,521.966z"/>
	<path fill="#AABBC9" d="M832.331,507.585c-1.837-9.371-10.091-16.443-20-16.443c-5.155,0-9.86,1.918-13.449,5.073
		c8.839,8.516,16.468,17.148,22.384,25.75C826.908,519.209,831.087,513.924,832.331,507.585z"/>
	<path fill="#5590AF" d="M828.983,511.528c-5.872,0-11.606-0.587-17.15-1.699c3.486,4.042,6.65,8.093,9.432,12.138
		c4.433-2.165,7.955-5.895,9.868-10.466C830.418,511.518,829.702,511.528,828.983,511.528z"/>
	<circle fill="#B2B9B9" cx="267.843" cy="452.859" r="19.793"/>
	<path fill="#F9FDFF" d="M287.408,449.843c-1.452-9.5-9.659-16.778-19.565-16.778c-10.932,0-19.793,8.862-19.793,19.793
		c0,0.47,0.022,0.935,0.055,1.397c4.895,3.021,10.66,4.767,16.835,4.767C273.689,459.022,281.617,455.519,287.408,449.843z"/>
	<g>
		<path fill="#4894C4" d="M287.528,454.93c-0.909-7.913-7.626-14.059-15.782-14.059c-8.776,0-15.89,7.114-15.89,15.89
			c0,8.156,6.146,14.873,14.059,15.782C279.192,471.578,286.563,464.207,287.528,454.93z"/>
		<path fill="#B2B9B9" d="M255.856,456.762c0,0.243,0.008,0.483,0.018,0.723c2.068,0.985,4.381,1.538,6.824,1.538
			c8.776,0,15.89-7.114,15.89-15.89c0-0.242-0.008-0.483-0.018-0.723c-2.068-0.985-4.381-1.538-6.824-1.538
			C262.97,440.872,255.856,447.986,255.856,456.762z"/>
	</g>
	<g>
		<polygon fill="#0383D3" points="486.696,533.32 317.608,533.32 284.271,564.6 451.173,564.6 		"/>
		<path fill="#0F93E4" d="M460.96,533.32c-11.437,11.636-19.567,24.838-23.203,31.28h13.416l35.523-31.28H460.96z"/>
		<polygon fill="#006FBD" points="318.101,564.6 345.167,538.468 335.27,538.468 308.315,564.6 		"/>
		<polygon fill="#138ED7" points="360.259,564.6 378.309,541.437 356.215,564.6 		"/>
		<polygon fill="#138ED7" points="401.862,564.6 407.737,564.6 426.548,538.468 		"/>
		<path fill="#F8FEFC" d="M460.96,533.32H317.608l-33.337,31.28h6.268l26.794-26.133h138.852
			C457.703,536.735,459.297,535.012,460.96,533.32z"/>
	</g>
	<polygon fill="#0383D3" points="596.955,534.693 751.206,534.693 781.618,563.228 629.361,563.228 	"/>
	<path fill="#0F93E4" d="M620.433,534.693c10.434,10.615,17.85,22.659,21.167,28.535h-12.239l-32.406-28.535H620.433z"/>
	<polygon fill="#006FBD" points="765.803,563.228 741.112,539.388 750.14,539.388 774.73,563.228 	"/>
	<polygon fill="#138ED7" points="719.887,563.228 703.421,542.097 723.576,563.228 	"/>
	<polygon fill="#138ED7" points="681.934,563.228 676.575,563.228 659.414,539.388 	"/>
	<path fill="#F8FEFC" d="M620.433,534.693h130.774l30.412,28.535h-5.718l-24.443-23.84H624.789
		C623.403,537.808,621.949,536.236,620.433,534.693z"/>
	<polygon fill="#F8FEFC" points="598.852,556.483 536.341,504.02 473.831,556.483 473.831,594.89 598.852,594.89 	"/>
	<polygon fill="#EBEDEF" points="479.56,561.291 479.56,594.89 598.852,594.89 598.852,556.483 542.07,508.828 	"/>
	<path fill="#9CA8AF" d="M536.341,504.02l-62.51,52.463v0l5.728,4.808l56.782-47.656c0,0,2.805,6.693,13.611,12.855
		c11.977,6.83,48.9,39.608,48.9,39.608v-9.615L536.341,504.02z"/>
	<g>
		<polygon fill="#B3BDBD" points="277.738,476.7 277.738,550.422 309.544,520.579 347.227,520.579 347.227,479.768 403.055,478.383 
			403.055,476.7 		"/>
	</g>
	<polygon fill="#F8FEFC" points="289.418,539.463 309.544,520.579 340.845,520.579 340.845,484.272 289.418,484.272 	"/>
	<path fill="#98A4AB" d="M403.055,520.579v-42.197l-55.829,1.386v40.811H403.055z M393.553,515.046h-9.305v-2.157h9.305V515.046z
		 M367.262,488.776h28.568v2.97h-28.568V488.776z M367.262,500.556h28.568v2.97h-28.568V500.556z"/>
	<g>
		<polygon fill="#F8FEFC" points="277.738,476.7 287.399,483.905 287.399,482.375 342.742,482.375 342.742,520.579 347.227,520.579 
			347.227,479.768 403.055,478.383 403.055,476.7 		"/>
	</g>
	<path fill="#58544E" d="M405.805,701.07c36.999,26.782,82.033,42.498,130.617,42.498s93.618-15.716,130.617-42.498H405.805z"/>
	<path fill="#A7835B" d="M655.682,708.779c-33.802-1.867-72.672-2.93-114.026-2.93c-45.322,0-87.658,1.277-123.612,3.489
		c34.51,21.719,75.031,34.231,118.378,34.231C580.139,743.569,620.981,730.841,655.682,708.779
		C655.682,708.779,655.682,708.779,655.682,708.779z"/>
	<path fill="#D1B388" d="M459.724,719.08c8.308,4.123,16.981,7.601,25.962,10.362c16.829-0.596,34.797-0.918,53.458-0.918
		c16.855,0,33.143,0.263,48.538,0.753c8.906-2.769,17.51-6.24,25.75-10.351c-23.383-0.677-48.353-1.044-74.288-1.044
		C511.302,717.882,484.572,718.304,459.724,719.08z"/>
	<path fill="#916F51" d="M541.656,705.849c41.355,0,80.224,1.063,114.026,2.93c-6.729-4.409-15.448-7.708-29.05-7.708H467.037
		c-13.044,0-39.55,1.518-48.994,8.268C453.997,707.126,496.334,705.849,541.656,705.849z"/>
	<path fill="#D1B388" d="M627.341,711.171c-29.215,0.479-58.619,0.723-88.196,0.723c-31.468,0-62.739-0.277-93.797-0.819
		l18.876-6.11h144.397L627.341,711.171z"/>
	<path fill="#F8FEFC" d="M536.523,445.212c-14.902,0-26.983,12.081-26.983,26.983c0,10.294,5.766,19.239,14.243,23.789
		c-9.988,8.848-23.142,20.175-37.183,31.596c-20.56,16.724-35.647,31.305-41.397,37.021h5.969l76.208-67.015l0,0l9.143-8.051
		l9.209,8.028c10.94-3.443,17.773-13.291,17.773-25.368C563.506,457.292,551.425,445.212,536.523,445.212z"/>
	<path fill="#2493DE" d="M375.05,714.625l4.976-5.06l0,0c-1.525-2.877-4.548-4.837-8.03-4.837h-15.338
		c-5.017,0-9.084,4.067-9.084,9.084v17.015c0,5.017,4.067,9.084,9.084,9.084h15.338c5.017,0,9.084-4.067,9.084-9.084v-17.015
		c0-0.656-0.071-1.295-0.203-1.912L375.05,714.625z"/>
	<path fill="#73C0E2" d="M374.658,714.615c-12.633,0-22.874,10.598-22.874,23.672l23.266-23.662
		C374.919,714.623,374.789,714.615,374.658,714.615z"/>
	<path fill="#F5FBFF" d="M371.996,704.728h-15.338c-5.017,0-9.084,4.067-9.084,9.084v17.015c0,3.115,1.568,5.862,3.958,7.499
		l0.252-0.04c0-13.074,10.241-23.672,22.874-23.672c0.132,0,0.262,0.008,0.393,0.01l4.976-5.06
		C378.502,706.688,375.478,704.728,371.996,704.728z"/>
	<path fill="#ABB3B2" d="M686.39,716.611l-4.031-5.395c-40.766,31.321-91.258,49.855-145.937,49.855
		c-54.489,0-104.82-18.404-145.512-49.526v13.608c41.304,29.621,91.448,46.978,145.512,46.978
		c53.627,0,103.396-17.08,144.508-46.266C681.63,722.168,683.607,718.923,686.39,716.611z"/>
	<path fill="#2493DE" d="M702.642,750.356L702.642,750.356c-7.589,0-13.74-6.152-13.74-13.74v-1.891
		c0-7.589,6.152-13.74,13.74-13.74h0c7.589,0,13.74,6.152,13.74,13.74v1.891C716.383,744.204,710.231,750.356,702.642,750.356z"/>
	<path fill="#F5FBFF" d="M693.864,747.147c0-10.888,8.826-19.714,19.714-19.714c0.942,0,1.867,0.07,2.773,0.198
		c-0.318-3.723-3.436-6.647-7.242-6.647h-12.934c-4.017,0-7.273,3.256-7.273,7.273v14.826c0,3.287,2.182,6.062,5.176,6.963
		C693.938,749.099,693.864,748.132,693.864,747.147z"/>
	<path fill="#73C0E2" d="M715.454,727.524c-0.618-0.058-1.243-0.091-1.876-0.091c-10.888,0-19.714,8.826-19.714,19.714
		c0,0.381,0.013,0.759,0.035,1.135C696.442,737.71,704.881,729.513,715.454,727.524z"/>
	<g>
		<path fill="#ABB3B2" d="M709.807,712.949h0.488c3.465,0,6.668,1.112,9.279,2.995c3.479-3.275,6.879-6.64,10.19-10.095h-12.398
			C714.892,708.266,712.37,710.631,709.807,712.949z"/>
	</g>
	<g>
		<path fill="#21689E" d="M249.773,576.966l17.171-16.243v-49.741c-15.273,0-30.979,4.064-30.979,40.877c0,45.473,0,31.582,0,57.813
			c0,17.042,2.64,28.442,41.773,49.56v-67.213C266.557,588.987,256.899,583.816,249.773,576.966z"/>
		<g>
			<path fill="#A5B3BE" d="M277.738,592.019c-9.076-2.461-17.147-6.332-23.676-11.366c6.53,5.037,14.597,8.917,23.676,11.377
				V592.019z"/>
			<path fill="#A5B3BE" d="M251.174,578.261c0.914,0.814,1.864,1.602,2.85,2.364C253.038,579.863,252.087,579.075,251.174,578.261z"
				/>
			<path fill="#A5B3BE" d="M266.944,511.754c-18.326,5.876-30.22,17.556-30.22,35.688c0,12.173,5.38,22.7,14.366,30.743
				c-0.448-0.4-0.887-0.806-1.316-1.219l17.171-16.243V511.754z"/>
		</g>
		<path fill="#F8FEFC" d="M277.738,599.773v-7.742c-9.079-2.461-17.147-6.34-23.676-11.377c-0.012-0.01-0.025-0.019-0.037-0.029
			c-0.986-0.762-1.937-1.55-2.85-2.364c-0.028-0.025-0.056-0.05-0.084-0.075c-8.986-8.042-14.366-18.57-14.366-30.743
			c0-18.132,11.894-29.812,30.22-35.688v-0.772c-15.273,0-30.979,4.064-30.979,40.877c0,1.265,0,2.481,0,3.656
			C235.965,577.726,252.173,591.379,277.738,599.773z"/>
		<g>
			<path fill="#0EA5F7" d="M244.275,579.516c0,5.562,0,8.421,0,21.455c0,15.327,2.256,25.966,33.463,43.708v-44.907
				C263.074,594.958,251.488,588.414,244.275,579.516z"/>
		</g>
		<path fill="#2FC1E5" d="M277.738,659.232v-7.469c-6.944-2.688-18.509-8.156-28.706-17.674
			c-6.486-6.054-10.448-12.561-12.866-18.135C237.234,629.783,243.6,640.81,277.738,659.232z"/>
		<g>
			<path fill="#5097B7" d="M266.944,521.712c-4.854,1.299-15.393,5.261-21.278,16.063v34.705c1.255,1.564,2.629,3.06,4.111,4.484
				l17.168-16.24V521.712z"/>
		</g>
		<path fill="#3E8AAE" d="M266.944,547.221c-11.283-0.675-17.846,0.231-21.278,1.059v24.199c1.255,1.564,2.629,3.06,4.111,4.484
			l17.168-16.24V547.221z"/>
	</g>
	<path fill="#45B5DC" d="M523.379,320.873c2.784-3.839,7.766-7.898,14.62-7.898c9.854,0,17.843,7.988,17.843,17.843
		c0,1.848-0.281,3.63-0.802,5.306v0.015h64.851l0,0c2.403-2.048,3.928-5.094,3.928-8.499c0-6.166-4.999-11.165-11.165-11.165
		h-24.889c0,0-13.858-22.637-46.623-24.188c-10.149-0.668-23.099,2.217-34.481,5.048c-13,3.234-23.82,4.809-23.82,4.809
		c-10.33,1.526-17.626,10.589-17.626,20.813c0,11.56,9.605,18.922,20.593,18.922C496.796,341.879,510.751,338.287,523.379,320.873z"
		/>
	<path fill="#FFF8FA" d="M523.379,319.685c2.784-3.839,7.766-7.898,14.62-7.898c9.854,0,17.843,7.988,17.843,17.843
		c0,1.848-0.281,3.63-0.802,5.306v0.015h64.851l0,0c2.403-2.048,3.928-5.094,3.928-8.499c0-6.166-4.999-11.165-11.165-11.165
		h-24.889c0,0-13.858-22.637-46.623-24.188c-10.149-0.668-23.099,2.217-34.481,5.048c-13,3.234-23.82,4.809-23.82,4.809
		c-10.33,1.526-17.626,10.589-17.626,20.813c0,11.56,9.605,18.922,20.593,18.922C496.796,340.691,510.751,337.099,523.379,319.685z"
		/>
	<path fill="#FFF8FA" d="M703.732,290.896c-4.989,0.333-9.856,0.713-14.542,1.122l-3.761,0.365
		c53.274,44.091,89.666,111.246,96.729,187.857c5.429-6.642,13.096-11.418,21.869-13.201
		c-9.863-68.193-44.21-128.258-93.644-170.621"/>
	<g>
		<path fill="#F8FEFC" d="M299.29,431.829c7.509-28.097,19.088-54.298,33.994-77.789c-5.338-3.332-10.245-6.621-14.782-9.88
			c-15.967,22.091-28.782,46.696-37.763,73.127C288.364,420.052,294.847,425.199,299.29,431.829z"/>
	</g>
	<g>
		<path fill="#F8FEFC" d="M333.241,431.829c6.838-22.209,16.599-42.935,28.78-61.623c-4.669-2.391-9.098-4.752-13.299-7.087
			c-13.258,20.816-23.727,43.938-30.814,68.71H333.241z"/>
	</g>
	<circle fill="#026EC0" cx="839.412" cy="317.566" r="34.118"/>
	<path fill="#1A99F2" d="M831.054,285.812c-1.839,0-3.636,0.182-5.377,0.517c-12.002,5.285-20.383,17.282-20.383,31.238
		c0,15.78,10.713,29.055,25.262,32.955c2.796-16.806,13.792-30.838,28.741-37.842C858.562,297.717,846.199,285.812,831.054,285.812z
		"/>
	<path fill="#6FEAFD" d="M819.237,345.077c1.681-2.41,3.392-4.648,5.113-6.73c-4.51-5.763-7.168-10.878-5.747-13.89
		c3.624-7.682,17.858-17.486,25.224-22.187c-2.688-7.177-9.606-12.287-17.721-12.287c-2.786,0-5.872,0.607-8.9,1.688
		c-7.29,6.257-11.912,15.534-11.912,25.895C805.294,328.86,810.783,338.868,819.237,345.077z"/>
	<g>
		<path fill="#041A2F" d="M831.327,346.795c-0.3,1.226-0.561,2.467-0.77,3.726c2.824,0.757,5.792,1.163,8.855,1.163
			c3.112,0,6.127-0.419,8.992-1.2c-0.517,0.023-1.036,0.037-1.559,0.037C841.257,350.521,835.982,349.177,831.327,346.795z"/>
	</g>
	<path fill="#778893" d="M830.606,350.534c-14.574-3.883-25.311-17.171-25.311-32.968c0-7.089,2.166-13.671,5.867-19.126
		c-1.954-0.699-3.985-1.349-6.085-1.953c-6.448,6.207-10.461,14.924-10.461,24.58c0,18.207,14.262,33.081,32.224,34.064
		C828.188,353.603,829.445,352.07,830.606,350.534z"/>
	<path fill="#FFF8FA" d="M638.127,281.71c11.388-1.611,20.544-2.884,27.877-3.889c0,0,0.001,0.001,0.001,0.001
		c7.182-0.984,12.624-1.712,16.709-2.247c-42.178-27.696-92.393-43.77-146.293-43.77c-63.683,0-122.224,22.436-168.439,59.973
		c2.347,1.487,6.2,3.73,12.24,6.767c42.563-38.002,96.943-60.801,156.2-60.801c42.612,0,82.698,11.798,117.685,32.552
		c-13.646,1.072-24.574,2.41-32.049,3.472c-26.455-11.742-55.359-18.206-85.636-18.206c-52.029,0-100.004,19.091-138.461,51.249
		c4.747,2.078,10.136,4.351,16.247,6.824c34.675-26.502,76.795-42.037,122.213-42.037c101.795,0,187.027,78.031,208.983,182.696
		c5.769,3.847,11.449,7.786,16.976,11.799C750.179,385.039,702.823,317.045,638.127,281.71z"/>
	<g>
		<linearGradient id="SVGID_1_" gradientUnits="userSpaceOnUse" x1="293.2482" y1="419.8845" x2="827.8646" y2="419.8845">
			<stop  offset="0" style="stop-color:#00B0FF"/>
			<stop  offset="1" style="stop-color:#006FBD"/>
		</linearGradient>
		<path fill="url(#SVGID_1_)" d="M822.053,581.237c2.169-2.064,4.155-4.512,5.811-7.411
			c-15.704-41.598-72.605-125.083-278.704-192.55c-276.958-90.662-231.253-122.744-231.253-122.744
			c-8.031,0.924-14.894,5.244-18.458,9.899c-41.839,54.641,137.922,120.896,243.178,154.618
			C727.389,482.242,797.621,549.367,822.053,581.237z"/>
	</g>
	<g>
		<path fill="#016DC0" d="M362.021,370.206c-12.181,18.688-21.942,39.413-28.78,61.623h55.66v36.16h25.305v52.59h87.025
			l35.292-31.044l9.209,8.028l26.27,23.016H719.31c-60.658-37.371-115.982-60.313-217.861-94.561
			C438.919,404.999,394.589,386.89,362.021,370.206z"/>
	</g>
	<path fill="#00B0FF" d="M501.449,426.018c-62.53-21.02-106.86-39.128-139.428-55.812c-10.626,16.303-19.41,34.157-26.019,53.194
		l-1.726,8.428H388.9v36.16h25.305v33.477c8.261-1.005,25.451-3.185,37.948-5.365v-15.442h-9.107v-25.203
		c0,0,9.873,4.02,36.513,8.573c26.64,4.553,48.022,2.97,48.022,2.97h8.76v-29.047C525.324,434.108,513.728,430.146,501.449,426.018z
		"/>
	<rect x="505.804" y="603.535" fill="#B2B9B9" width="18.907" height="86.581"/>
	<rect x="505.804" y="603.535" fill="#7D8A8F" width="18.907" height="15.112"/>
	<rect x="547.972" y="603.535" fill="#B2B9B9" width="18.907" height="86.581"/>
	<rect x="547.972" y="603.535" fill="#7D8A8F" width="18.907" height="15.112"/>
	<g>
		<rect x="584.598" y="601.621" fill="#F9FDFF" width="14.254" height="88.494"/>
		<rect x="584.598" y="601.621" fill="#B2B9B9" width="9.107" height="88.494"/>
		<rect x="584.598" y="677.644" fill="#7D8A8F" width="9.107" height="12.67"/>
	</g>
	<g>
		
			<rect x="473.831" y="601.621" transform="matrix(-1 -4.504675e-11 4.504675e-11 -1 961.9164 1291.7374)" fill="#F9FDFF" width="14.254" height="88.494"/>
		
			<rect x="478.978" y="601.621" transform="matrix(-1 -4.504143e-11 4.504143e-11 -1 967.0638 1291.7374)" fill="#B2B9B9" width="9.107" height="88.494"/>
		
			<rect x="478.978" y="677.644" transform="matrix(-1 -4.494151e-11 4.494151e-11 -1 967.0638 1367.9575)" fill="#7D8A8F" width="9.107" height="12.67"/>
	</g>
	<g>
		<path fill="#0270C6" d="M795.107,592.185v70.908c37.609-22.668,37.609-29.201,37.609-45.377v-64.064
			C832.715,588.99,799.268,592.185,795.107,592.185z"/>
	</g>
	<path fill="#E6F3ED" d="M795.107,592.185v7.763c30.822-7.763,37.609-15.253,37.609-38.533v-7.763
		C832.715,588.99,799.268,592.185,795.107,592.185z"/>
	<g>
		<path fill="#1093E3" d="M821.705,589.7v45.043c11.006-9.782,11.01-16.273,11.01-27.012v-46.317
			C832.715,575.357,830.278,583.634,821.705,589.7z"/>
	</g>
	<path fill="#59B4E4" d="M795.107,659.925v3.168c37.609-22.668,37.609-29.201,37.609-45.377v-3.168
		C832.715,630.724,832.715,637.257,795.107,659.925z"/>
	<path fill="none" stroke="#FFF8FA" stroke-miterlimit="10" d="M693.799,274.192"/>
	<path fill="#F8FEFC" d="M449.467,438.161c-28.588-10.567-47.133-20.016-66.783-35.767c4.751-6.335,12.835-10.823,19.138-11.878
		c16.366,8.711,45.93,23.823,56.225,31.808C456.858,428.526,453.163,434.201,449.467,438.161z"/>
	<path fill="#B9E9F8" d="M449.48,434.234c-14.879-5.873-45.112-21.145-56.621-29.3c2.559-3.412,5.688-6.7,8.711-9.008
		c8.813,4.691,47.513,24.109,53.057,28.409C453.988,427.676,451.47,432.102,449.48,434.234z"/>
	<path fill="#F8FEFC" d="M388.9,437.162v25.34c30.692,4.148,59.293,7.467,59.293,7.467v-18.346
		c-24.45-6.411-39.773-10.469-54.641-13.462C391.956,437.839,390.407,437.506,388.9,437.162z"/>
	<path fill="#16B2F2" d="M341.113,409.968c-2.939,7.107-5.574,14.398-7.872,21.861h37.568
		C353.071,425.149,344.867,416.776,341.113,409.968z"/>
	<g>
		<path fill="#0070BD" d="M341.113,409.968c1.575,2.857,3.939,5.989,7.457,9.157c6.15-13.806,12.02-24.485,12.02-24.485h-12.516
			C345.6,399.624,343.263,404.774,341.113,409.968z"/>
	</g>
	<g>
		<path fill="#F8FEFC" d="M348.57,419.124c-1.796,4.031-3.615,8.328-5.319,12.704h27.557
			C360.514,427.952,353.436,423.505,348.57,419.124z"/>
	</g>
	<path fill="#B9E9F8" d="M388.9,458.145c32.174,5.82,56.304,7.949,56.304,7.949v-10.182c-8.243-2.607-43.921-10.909-56.304-13.769
		V458.145z"/>
	<path fill="#F8FEFC" d="M440.176,479.471h-25.97v21.995c5.816-0.708,16.057-1.998,25.97-3.46V479.471z"/>
	<path fill="#B9E9F8" d="M414.205,498.24c8.944-1.148,22.704-3.03,22.704-3.03v-12.274h-22.704V498.24z"/>
	<path fill="#004572" d="M558.663,477.69c0,0,13.339,5.543,22.569,2.574c7.597-2.444,14.254-10.295,16.63-16.63
		c0,0,7.919,35.166-11.68,40.746s-37.021-19.167-37.021-19.167L558.663,477.69z"/>
	<path fill="#00B0FF" d="M630.709,495.705l14.056,1.98l-1.386,13.66c0,0,12.748,2.416,34.042,9.234h31.643
		c-25.743-15.86-50.528-29.121-78.317-41.751L630.709,495.705z"/>
	<path fill="#A9EEFE" d="M669.376,497.807c-17.717-2.513-25.703-2.696-25.703-2.696v2.42c14.08,1.906,29.358,4.91,37.227,6.535
		C677.075,501.939,673.237,499.856,669.376,497.807z"/>
	<g>
		<path fill="#FFF8FA" d="M822.054,581.236c2.168-2.064,4.154-4.512,5.81-7.41c-15.704-41.598-72.605-125.083-278.704-192.55
			c-276.958-90.662-231.253-122.744-231.253-122.744c-8.031,0.924-14.894,5.244-18.458,9.899c-1.971,2.574-3.449,5.175-4.468,7.796
			c-2.899,21.716,37.435,63.33,257.743,135.537c72.777,23.853,127.92,55.541,169.461,88.189
			C779.074,533.199,808.067,562.993,822.054,581.236z"/>
	</g>
	<path fill="#FCFBFB" d="M821.265,521.966c6.78-3.312,11.451-10.272,11.451-18.325c0-11.258-9.127-20.385-20.385-20.385
		c-7.225,0-13.567,3.762-17.188,9.431C805.577,502.341,814.531,512.173,821.265,521.966z"/>
	<path fill="#AABBC9" d="M832.331,507.585c-1.837-9.371-10.091-16.443-20-16.443c-5.155,0-9.86,1.918-13.449,5.073
		c8.839,8.516,16.468,17.148,22.384,25.75C826.908,519.209,831.087,513.924,832.331,507.585z"/>
	<path fill="#5590AF" d="M828.983,511.528c-5.872,0-11.606-0.587-17.15-1.699c3.486,4.042,6.65,8.093,9.432,12.138
		c4.433-2.165,7.955-5.895,9.868-10.466C830.418,511.518,829.702,511.528,828.983,511.528z"/>
	<circle fill="#B2B9B9" cx="267.843" cy="452.859" r="19.793"/>
	<path fill="#F9FDFF" d="M287.408,449.843c-1.452-9.5-9.659-16.778-19.565-16.778c-10.932,0-19.793,8.862-19.793,19.793
		c0,0.47,0.022,0.935,0.055,1.397c4.895,3.021,10.66,4.767,16.835,4.767C273.689,459.022,281.617,455.519,287.408,449.843z"/>
	<g>
		<path fill="#4894C4" d="M287.528,454.93c-0.909-7.913-7.626-14.059-15.782-14.059c-8.776,0-15.89,7.114-15.89,15.89
			c0,8.156,6.146,14.873,14.059,15.782C279.192,471.578,286.563,464.207,287.528,454.93z"/>
		<path fill="#B2B9B9" d="M255.856,456.762c0,0.243,0.008,0.483,0.018,0.723c2.068,0.985,4.381,1.538,6.824,1.538
			c8.776,0,15.89-7.114,15.89-15.89c0-0.242-0.008-0.483-0.018-0.723c-2.068-0.985-4.381-1.538-6.824-1.538
			C262.97,440.872,255.856,447.986,255.856,456.762z"/>
	</g>
	<g>
		<polygon fill="#0383D3" points="486.696,533.32 317.608,533.32 284.271,564.6 451.173,564.6 		"/>
		<path fill="#0F93E4" d="M460.96,533.32c-11.437,11.636-19.567,24.838-23.203,31.28h13.416l35.523-31.28H460.96z"/>
		<polygon fill="#006FBD" points="318.101,564.6 345.167,538.468 335.27,538.468 308.315,564.6 		"/>
		<polygon fill="#138ED7" points="360.259,564.6 378.309,541.437 356.215,564.6 		"/>
		<polygon fill="#138ED7" points="401.862,564.6 407.737,564.6 426.548,538.468 		"/>
		<path fill="#F8FEFC" d="M460.96,533.32H317.608l-33.337,31.28h6.268l26.794-26.133h138.852
			C457.703,536.735,459.297,535.012,460.96,533.32z"/>
	</g>
	<polygon fill="#0383D3" points="596.955,534.693 751.206,534.693 781.618,563.228 629.361,563.228 	"/>
	<path fill="#0F93E4" d="M620.433,534.693c10.434,10.615,17.85,22.659,21.167,28.535h-12.239l-32.406-28.535H620.433z"/>
	<polygon fill="#006FBD" points="765.803,563.228 741.112,539.388 750.14,539.388 774.73,563.228 	"/>
	<polygon fill="#138ED7" points="719.887,563.228 703.421,542.097 723.576,563.228 	"/>
	<polygon fill="#138ED7" points="681.934,563.228 676.575,563.228 659.414,539.388 	"/>
	<path fill="#F8FEFC" d="M620.433,534.693h130.774l30.412,28.535h-5.718l-24.443-23.84H624.789
		C623.403,537.808,621.949,536.236,620.433,534.693z"/>
	<polygon fill="#F8FEFC" points="598.852,556.483 536.341,504.02 473.831,556.483 473.831,594.89 598.852,594.89 	"/>
	<polygon fill="#EBEDEF" points="479.56,561.291 479.56,594.89 598.852,594.89 598.852,556.483 542.07,508.828 	"/>
	<path fill="#9CA8AF" d="M536.341,504.02l-62.51,52.463v0l5.728,4.808l56.782-47.656c0,0,2.805,6.693,13.611,12.855
		c11.977,6.83,48.9,39.608,48.9,39.608v-9.615L536.341,504.02z"/>
	<g>
		<polygon fill="#B3BDBD" points="277.738,476.7 277.738,550.422 309.544,520.579 347.227,520.579 347.227,479.768 403.055,478.383 
			403.055,476.7 		"/>
	</g>
	<polygon fill="#F8FEFC" points="289.418,539.463 309.544,520.579 340.845,520.579 340.845,484.272 289.418,484.272 	"/>
	<path fill="#98A4AB" d="M403.055,520.579v-42.197l-55.829,1.386v40.811H403.055z M393.553,515.046h-9.305v-2.157h9.305V515.046z
		 M367.262,488.776h28.568v2.97h-28.568V488.776z M367.262,500.556h28.568v2.97h-28.568V500.556z"/>
	<g>
		<polygon fill="#F8FEFC" points="277.738,476.7 287.399,483.905 287.399,482.375 342.742,482.375 342.742,520.579 347.227,520.579 
			347.227,479.768 403.055,478.383 403.055,476.7 		"/>
	</g>
	<path fill="#58544E" d="M405.805,701.07c36.999,26.782,82.033,42.498,130.617,42.498s93.618-15.716,130.617-42.498H405.805z"/>
	<path fill="#A7835B" d="M655.682,708.779c-33.802-1.867-72.672-2.93-114.026-2.93c-45.322,0-87.658,1.277-123.612,3.489
		c34.51,21.719,75.031,34.231,118.378,34.231C580.139,743.569,620.981,730.841,655.682,708.779
		C655.682,708.779,655.682,708.779,655.682,708.779z"/>
	<path fill="#D1B388" d="M459.724,719.08c8.308,4.123,16.981,7.601,25.962,10.362c16.829-0.596,34.797-0.918,53.458-0.918
		c16.855,0,33.143,0.263,48.538,0.753c8.906-2.769,17.51-6.24,25.75-10.351c-23.383-0.677-48.353-1.044-74.288-1.044
		C511.302,717.882,484.572,718.304,459.724,719.08z"/>
	<path fill="#916F51" d="M541.656,705.849c41.355,0,80.224,1.063,114.026,2.93c-6.729-4.409-15.448-7.708-29.05-7.708H467.037
		c-13.044,0-39.55,1.518-48.994,8.268C453.997,707.126,496.334,705.849,541.656,705.849z"/>
	<path fill="#D1B388" d="M627.341,711.171c-29.215,0.479-58.619,0.723-88.196,0.723c-31.468,0-62.739-0.277-93.797-0.819
		l18.876-6.11h144.397L627.341,711.171z"/>
	<path fill="#F8FEFC" d="M536.523,445.212c-14.902,0-26.983,12.081-26.983,26.983c0,10.294,5.766,19.239,14.243,23.789
		c-9.988,8.848-23.142,20.175-37.183,31.596c-20.56,16.724-35.647,31.305-41.397,37.021h5.969l76.208-67.015l0,0l9.143-8.051
		l9.209,8.028c10.94-3.443,17.773-13.291,17.773-25.368C563.506,457.292,551.425,445.212,536.523,445.212z"/>
	<path fill="#2493DE" d="M375.05,714.625l4.976-5.06l0,0c-1.525-2.877-4.548-4.837-8.03-4.837h-15.338
		c-5.017,0-9.084,4.067-9.084,9.084v17.015c0,5.017,4.067,9.084,9.084,9.084h15.338c5.017,0,9.084-4.067,9.084-9.084v-17.015
		c0-0.656-0.071-1.295-0.203-1.912L375.05,714.625z"/>
	<path fill="#73C0E2" d="M374.658,714.615c-12.633,0-22.874,10.598-22.874,23.672l23.266-23.662
		C374.919,714.623,374.789,714.615,374.658,714.615z"/>
	<path fill="#F5FBFF" d="M371.996,704.728h-15.338c-5.017,0-9.084,4.067-9.084,9.084v17.015c0,3.115,1.568,5.862,3.958,7.499
		l0.252-0.04c0-13.074,10.241-23.672,22.874-23.672c0.132,0,0.262,0.008,0.393,0.01l4.976-5.06
		C378.502,706.688,375.478,704.728,371.996,704.728z"/>
	<path fill="#ABB3B2" d="M686.39,716.611l-4.031-5.395c-40.766,31.321-91.258,49.855-145.937,49.855
		c-54.489,0-104.82-18.404-145.512-49.526v13.608c41.304,29.621,91.448,46.978,145.512,46.978
		c53.627,0,103.396-17.08,144.508-46.266C681.63,722.168,683.607,718.923,686.39,716.611z"/>
	<path fill="#2493DE" d="M702.642,750.356L702.642,750.356c-7.589,0-13.74-6.152-13.74-13.74v-1.891
		c0-7.589,6.152-13.74,13.74-13.74h0c7.589,0,13.74,6.152,13.74,13.74v1.891C716.383,744.204,710.231,750.356,702.642,750.356z"/>
	<path fill="#F5FBFF" d="M693.864,747.147c0-10.888,8.826-19.714,19.714-19.714c0.942,0,1.867,0.07,2.773,0.198
		c-0.318-3.723-3.436-6.647-7.242-6.647h-12.934c-4.017,0-7.273,3.256-7.273,7.273v14.826c0,3.287,2.182,6.062,5.176,6.963
		C693.938,749.099,693.864,748.132,693.864,747.147z"/>
	<path fill="#73C0E2" d="M715.454,727.524c-0.618-0.058-1.243-0.091-1.876-0.091c-10.888,0-19.714,8.826-19.714,19.714
		c0,0.381,0.013,0.759,0.035,1.135C696.442,737.71,704.881,729.513,715.454,727.524z"/>
	<g>
		<path fill="#ABB3B2" d="M709.807,712.949h0.488c3.465,0,6.668,1.112,9.279,2.995c3.479-3.275,6.879-6.64,10.19-10.095h-12.398
			C714.892,708.266,712.37,710.631,709.807,712.949z"/>
	</g>
	<g>
		<path fill="#21689E" d="M249.773,576.966l17.171-16.243v-49.741c-15.273,0-30.979,4.064-30.979,40.877c0,45.473,0,31.582,0,57.813
			c0,17.042,2.64,28.442,41.773,49.56v-67.213C266.557,588.987,256.899,583.816,249.773,576.966z"/>
		<g>
			<path fill="#A5B3BE" d="M277.738,592.019c-9.076-2.461-17.147-6.332-23.676-11.366c6.53,5.037,14.597,8.917,23.676,11.377
				V592.019z"/>
			<path fill="#A5B3BE" d="M251.174,578.261c0.914,0.814,1.864,1.602,2.85,2.364C253.038,579.863,252.087,579.075,251.174,578.261z"
				/>
			<path fill="#A5B3BE" d="M266.944,511.754c-18.326,5.876-30.22,17.556-30.22,35.688c0,12.173,5.38,22.7,14.366,30.743
				c-0.448-0.4-0.887-0.806-1.316-1.219l17.171-16.243V511.754z"/>
		</g>
		<path fill="#F8FEFC" d="M277.738,599.773v-7.742c-9.079-2.461-17.147-6.34-23.676-11.377c-0.012-0.01-0.025-0.019-0.037-0.029
			c-0.986-0.762-1.937-1.55-2.85-2.364c-0.028-0.025-0.056-0.05-0.084-0.075c-8.986-8.042-14.366-18.57-14.366-30.743
			c0-18.132,11.894-29.812,30.22-35.688v-0.772c-15.273,0-30.979,4.064-30.979,40.877c0,1.265,0,2.481,0,3.656
			C235.965,577.726,252.173,591.379,277.738,599.773z"/>
		<g>
			<path fill="#0EA5F7" d="M244.275,579.516c0,5.562,0,8.421,0,21.455c0,15.327,2.256,25.966,33.463,43.708v-44.907
				C263.074,594.958,251.488,588.414,244.275,579.516z"/>
		</g>
		<path fill="#2FC1E5" d="M277.738,659.232v-7.469c-6.944-2.688-18.509-8.156-28.706-17.674
			c-6.486-6.054-10.448-12.561-12.866-18.135C237.234,629.783,243.6,640.81,277.738,659.232z"/>
		<g>
			<path fill="#5097B7" d="M266.944,521.712c-4.854,1.299-15.393,5.261-21.278,16.063v34.705c1.255,1.564,2.629,3.06,4.111,4.484
				l17.168-16.24V521.712z"/>
		</g>
		<path fill="#3E8AAE" d="M266.944,547.221c-11.283-0.675-17.846,0.231-21.278,1.059v24.199c1.255,1.564,2.629,3.06,4.111,4.484
			l17.168-16.24V547.221z"/>
	</g>
	<path fill="#45B5DC" d="M523.379,320.873c2.784-3.839,7.766-7.898,14.62-7.898c9.854,0,17.843,7.988,17.843,17.843
		c0,1.848-0.281,3.63-0.802,5.306v0.015h64.851l0,0c2.403-2.048,3.928-5.094,3.928-8.499c0-6.166-4.999-11.165-11.165-11.165
		h-24.889c0,0-13.858-22.637-46.623-24.188c-10.149-0.668-23.099,2.217-34.481,5.048c-13,3.234-23.82,4.809-23.82,4.809
		c-10.33,1.526-17.626,10.589-17.626,20.813c0,11.56,9.605,18.922,20.593,18.922C496.796,341.879,510.751,338.287,523.379,320.873z"
		/>
	<path fill="#FFF8FA" d="M523.379,319.685c2.784-3.839,7.766-7.898,14.62-7.898c9.854,0,17.843,7.988,17.843,17.843
		c0,1.848-0.281,3.63-0.802,5.306v0.015h64.851l0,0c2.403-2.048,3.928-5.094,3.928-8.499c0-6.166-4.999-11.165-11.165-11.165
		h-24.889c0,0-13.858-22.637-46.623-24.188c-10.149-0.668-23.099,2.217-34.481,5.048c-13,3.234-23.82,4.809-23.82,4.809
		c-10.33,1.526-17.626,10.589-17.626,20.813c0,11.56,9.605,18.922,20.593,18.922C496.796,340.691,510.751,337.099,523.379,319.685z"
		/>
	<circle fill="#026EC0" cx="839.412" cy="317.566" r="34.118"/>
	<path fill="#1A99F2" d="M831.054,285.812c-1.839,0-3.636,0.182-5.377,0.517c-12.002,5.285-20.383,17.282-20.383,31.238
		c0,15.78,10.713,29.055,25.262,32.955c2.796-16.806,13.792-30.838,28.741-37.842C858.562,297.717,846.199,285.812,831.054,285.812z
		"/>
	<path fill="#6FEAFD" d="M819.237,345.077c1.681-2.41,3.392-4.648,5.113-6.73c-4.51-5.763-7.168-10.878-5.747-13.89
		c3.624-7.682,17.858-17.486,25.224-22.187c-2.688-7.177-9.606-12.287-17.721-12.287c-2.786,0-5.872,0.607-8.9,1.688
		c-7.29,6.257-11.912,15.534-11.912,25.895C805.294,328.86,810.783,338.868,819.237,345.077z"/>
	<g>
		<path fill="#041A2F" d="M831.327,346.795c-0.3,1.226-0.561,2.467-0.77,3.726c2.824,0.757,5.792,1.163,8.855,1.163
			c3.112,0,6.127-0.419,8.992-1.2c-0.517,0.023-1.036,0.037-1.559,0.037C841.257,350.521,835.982,349.177,831.327,346.795z"/>
	</g>
	<path fill="#778893" d="M830.606,350.534c-14.574-3.883-25.311-17.171-25.311-32.968c0-7.089,2.166-13.671,5.867-19.126
		c-1.954-0.699-3.985-1.349-6.085-1.953c-6.448,6.207-10.461,14.924-10.461,24.58c0,18.207,14.262,33.081,32.224,34.064
		C828.188,353.603,829.445,352.07,830.606,350.534z"/>
	<g>
		<g>
			<rect x="612.466" y="575.687" fill="#737472" width="170.258" height="95.82"/>
			<rect x="676.181" y="648.756" fill="#13273A" width="1.221" height="2.347"/>
			<path fill="#B1BDB8" d="M782.724,671.506v-79.322H626.39v71.601c0,0,132.082,0,139.506,0c7.424,0,8.513,7.721,8.513,7.721
				H782.724z"/>
			<path fill="#F9FDFF" d="M787.409,575.687c-3.695,0-174.943,0-174.943,0v5.741h181.542
				C794.008,581.428,793.282,575.687,787.409,575.687z"/>
			<rect x="626.39" y="592.185" fill="#7A8E88" width="156.334" height="12.406"/>
			<g>
				<rect x="691.062" y="592.185" fill="#13273A" width="76.22" height="50.153"/>
				<rect x="694.757" y="598.388" fill="#104D71" width="68.829" height="43.95"/>
				<rect x="694.757" y="621.749" fill="#0EA5F7" width="68.829" height="20.589"/>
				<rect x="694.757" y="619.241" fill="#104D71" width="68.829" height="2.508"/>
				<rect x="689.412" y="647.255" fill="#C2CECE" width="77.87" height="3.959"/>
				<rect x="691.062" y="651.152" fill="#13273A" width="77.441" height="5.704"/>
				<rect x="689.412" y="647.255" fill="#ADB2B2" width="77.87" height="1.353"/>
				<line fill="#104D71" x1="763.586" y1="619.241" x2="763.586" y2="620.924"/>
				<rect x="694.757" y="604.591" fill="#2FC1E5" width="68.829" height="10.163"/>
				<path fill="#EDFFFF" d="M746.89,642.338v-23.097h16.696v-4.487H746.89v-16.366h-4.624v16.366h-27.712v-16.366h-6.071v16.366
					h-13.726v4.487h13.726v23.097H688.29v4.916h80.213v-4.916H746.89z M714.555,642.338v-23.097h27.712v23.097H714.555z"/>
				<rect x="731.745" y="602.314" fill="#07192B" width="10.521" height="40.024"/>
				<rect x="731.745" y="637.851" fill="#ADB2B2" width="10.521" height="4.487"/>
			</g>
			<g>
				<rect x="633.055" y="592.185" fill="#13273A" width="43.026" height="50.153"/>
				<rect x="636.751" y="598.388" fill="#104D71" width="34.843" height="43.95"/>
				<rect x="636.751" y="604.591" fill="#0EA5F7" width="34.843" height="37.747"/>
				<line fill="none" stroke="#001C44" stroke-miterlimit="10" x1="636.751" y1="614.754" x2="636.751" y2="619.241"/>
				<rect x="631.405" y="647.255" fill="#C2CECE" width="44.775" height="3.959"/>
				<rect x="631.405" y="647.255" fill="#ADB2B2" width="44.775" height="1.353"/>
				<rect x="636.751" y="604.591" fill="#2FC1E5" width="34.843" height="10.163"/>
				<rect x="636.751" y="619.241" fill="#104D71" width="34.843" height="2.508"/>
				<polygon fill="#EDFFFF" points="656.548,642.338 656.548,619.241 671.594,619.241 671.594,614.754 656.548,614.754 
					656.548,598.388 650.477,598.388 650.477,614.754 636.751,614.754 636.751,619.241 650.477,619.241 650.477,642.338 
					630.284,642.338 630.284,647.255 677.302,647.255 677.302,642.338 				"/>
			</g>
			<polygon fill="#13273A" points="626.39,651.152 626.39,595.961 626.39,594.89 626.39,590.256 612.466,590.256 612.466,595.961 
				619.312,595.961 619.312,651.152 619.312,654.004 619.312,656.856 677.401,656.856 677.401,651.152 			"/>
			<rect x="612.466" y="683.979" fill="#F9FDFF" width="181.542" height="6.335"/>
		</g>
		<g>
			<rect x="287.491" y="575.687" fill="#737472" width="170.258" height="95.82"/>
			
				<rect x="392.813" y="648.756" transform="matrix(-1 -4.693413e-11 4.693413e-11 -1 786.8477 1299.8583)" fill="#13273A" width="1.221" height="2.347"/>
			<path fill="#B1BDB8" d="M287.491,671.506v-79.322h156.334v71.601c0,0-132.082,0-139.506,0c-7.424,0-8.513,7.721-8.513,7.721
				H287.491z"/>
			<path fill="#F9FDFF" d="M282.806,575.687c3.696,0,174.943,0,174.943,0v5.741H276.207
				C276.207,581.428,276.932,575.687,282.806,575.687z"/>
			<rect x="287.491" y="592.185" fill="#7A8E88" width="156.334" height="12.406"/>
			<g>
				
					<rect x="302.933" y="592.185" transform="matrix(-1 -4.491397e-11 4.491397e-11 -1 682.0863 1234.5228)" fill="#13273A" width="76.22" height="50.153"/>
				<rect x="306.629" y="598.388" fill="#104D71" width="68.829" height="43.95"/>
				<rect x="306.629" y="621.749" fill="#0EA5F7" width="68.829" height="20.589"/>
				
					<rect x="306.629" y="619.241" transform="matrix(-1 -4.488733e-11 4.488733e-11 -1 682.0863 1240.99)" fill="#104D71" width="68.829" height="2.508"/>
				
					<rect x="302.933" y="647.255" transform="matrix(-1 -4.485002e-11 4.485002e-11 -1 683.7361 1298.4685)" fill="#C2CECE" width="77.87" height="3.959"/>
				
					<rect x="301.712" y="651.152" transform="matrix(-1 -4.491042e-11 4.491042e-11 -1 680.8655 1308.0082)" fill="#13273A" width="77.441" height="5.704"/>
				
					<rect x="302.933" y="647.255" transform="matrix(-1 -4.493174e-11 4.493174e-11 -1 683.7361 1295.8618)" fill="#ADB2B2" width="77.87" height="1.353"/>
				<line fill="#104D71" x1="306.629" y1="619.241" x2="306.629" y2="620.924"/>
				<rect x="306.629" y="604.591" fill="#2FC1E5" width="68.829" height="10.163"/>
				<path fill="#EDFFFF" d="M301.712,642.338v4.916h80.213v-4.916h-20.193v-23.097h13.726v-4.487h-13.726v-16.366h-6.071v16.366
					h-27.712v-16.366h-4.624v16.366h-16.696v4.487h16.696v23.097H301.712z M327.948,642.338v-23.097h27.712v23.097H327.948z"/>
				
					<rect x="327.948" y="602.314" transform="matrix(-1 -4.503698e-11 4.503698e-11 -1 666.4177 1244.6525)" fill="#07192B" width="10.521" height="40.024"/>
				
					<rect x="327.948" y="637.851" transform="matrix(-1 -4.469148e-11 4.469148e-11 -1 666.4177 1280.1888)" fill="#ADB2B2" width="10.521" height="4.487"/>
			</g>
			<g>
				
					<rect x="394.133" y="592.185" transform="matrix(-1 -4.489754e-11 4.489754e-11 -1 831.2928 1234.5228)" fill="#13273A" width="43.026" height="50.153"/>
				<rect x="398.621" y="598.388" fill="#104D71" width="34.843" height="43.95"/>
				<rect x="398.621" y="604.591" fill="#0EA5F7" width="34.843" height="37.747"/>
				<line fill="none" stroke="#001C44" stroke-miterlimit="10" x1="433.464" y1="614.754" x2="433.464" y2="619.241"/>
				
					<rect x="394.034" y="647.255" transform="matrix(-1 -4.489088e-11 4.489088e-11 -1 832.8437 1298.4685)" fill="#C2CECE" width="44.775" height="3.959"/>
				
					<rect x="394.034" y="647.255" transform="matrix(-1 -4.493129e-11 4.493129e-11 -1 832.8437 1295.8618)" fill="#ADB2B2" width="44.775" height="1.353"/>
				<rect x="398.621" y="604.591" fill="#2FC1E5" width="34.843" height="10.163"/>
				
					<rect x="398.621" y="619.241" transform="matrix(-1 -4.497437e-11 4.497437e-11 -1 832.0848 1240.99)" fill="#104D71" width="34.843" height="2.508"/>
				<polygon fill="#EDFFFF" points="413.667,642.338 413.667,619.241 398.621,619.241 398.621,614.754 413.667,614.754 
					413.667,598.388 419.738,598.388 419.738,614.754 433.464,614.754 433.464,619.241 419.738,619.241 419.738,642.338 
					439.931,642.338 439.931,647.255 392.912,647.255 392.912,642.338 				"/>
			</g>
			<polygon fill="#13273A" points="443.825,651.152 443.825,595.961 443.825,594.89 443.825,590.256 457.749,590.256 
				457.749,595.961 450.902,595.961 450.902,651.152 450.902,654.004 450.902,656.856 392.813,656.856 392.813,651.152 			"/>
			
				<rect x="276.207" y="683.979" transform="matrix(-1 -4.489798e-11 4.489798e-11 -1 733.9555 1374.2926)" fill="#F9FDFF" width="181.542" height="6.335"/>
		</g>
	</g>
	<rect x="322.018" y="460.466" fill="#2B7FB5" width="47.514" height="5.628"/>
	<polygon fill="#D5EDFA" points="302.88,445.212 302.88,466.094 306.048,466.094 306.048,449.947 372.171,449.947 372.171,466.094 
		375.141,466.094 375.141,445.212 	"/>
	<path fill="#7DB5D9" d="M308.952,459.022v7.072h4.751C313.703,462.05,308.952,459.022,308.952,459.022z"/>
	<polygon fill="#87BAD5" points="302.88,446.611 302.88,466.094 306.048,466.094 306.048,450.019 	"/>
	<path fill="#87BAD5" d="M372.171,450.23v15.864h2.97v-19.566C374.245,447.682,373.072,449.129,372.171,450.23z"/>
	<g>
		<g>
			<rect x="612.466" y="575.687" fill="#737472" width="170.258" height="95.82"/>
			<rect x="676.181" y="648.756" fill="#13273A" width="1.221" height="2.347"/>
			<path fill="#B1BDB8" d="M782.724,671.506v-79.322H626.39v71.601c0,0,132.082,0,139.506,0c7.424,0,8.513,7.721,8.513,7.721
				H782.724z"/>
			<path fill="#F9FDFF" d="M787.409,575.687c-3.695,0-174.943,0-174.943,0v5.741h181.542
				C794.008,581.428,793.282,575.687,787.409,575.687z"/>
			<rect x="626.39" y="592.185" fill="#7A8E88" width="156.334" height="12.406"/>
			<g>
				<rect x="691.062" y="592.185" fill="#13273A" width="76.22" height="50.153"/>
				<rect x="694.757" y="598.388" fill="#104D71" width="68.829" height="43.95"/>
				<rect x="694.757" y="621.749" fill="#0EA5F7" width="68.829" height="20.589"/>
				<rect x="694.757" y="619.241" fill="#104D71" width="68.829" height="2.508"/>
				<rect x="689.412" y="647.255" fill="#C2CECE" width="77.87" height="3.959"/>
				<rect x="691.062" y="651.152" fill="#13273A" width="77.441" height="5.704"/>
				<rect x="689.412" y="647.255" fill="#ADB2B2" width="77.87" height="1.353"/>
				<line fill="#104D71" x1="763.586" y1="619.241" x2="763.586" y2="620.924"/>
				<rect x="694.757" y="604.591" fill="#2FC1E5" width="68.829" height="10.163"/>
				<path fill="#EDFFFF" d="M746.89,642.338v-23.097h16.696v-4.487H746.89v-16.366h-4.624v16.366h-27.712v-16.366h-6.071v16.366
					h-13.726v4.487h13.726v23.097H688.29v4.916h80.213v-4.916H746.89z M714.555,642.338v-23.097h27.712v23.097H714.555z"/>
				<rect x="731.745" y="602.314" fill="#07192B" width="10.521" height="40.024"/>
				<rect x="731.745" y="637.851" fill="#ADB2B2" width="10.521" height="4.487"/>
			</g>
			<g>
				<rect x="633.055" y="592.185" fill="#13273A" width="43.026" height="50.153"/>
				<rect x="636.751" y="598.388" fill="#104D71" width="34.843" height="43.95"/>
				<rect x="636.751" y="604.591" fill="#0EA5F7" width="34.843" height="37.747"/>
				<line fill="none" stroke="#001C44" stroke-miterlimit="10" x1="636.751" y1="614.754" x2="636.751" y2="619.241"/>
				<rect x="631.405" y="647.255" fill="#C2CECE" width="44.775" height="3.959"/>
				<rect x="631.405" y="647.255" fill="#ADB2B2" width="44.775" height="1.353"/>
				<rect x="636.751" y="604.591" fill="#2FC1E5" width="34.843" height="10.163"/>
				<rect x="636.751" y="619.241" fill="#104D71" width="34.843" height="2.508"/>
				<polygon fill="#EDFFFF" points="656.548,642.338 656.548,619.241 671.594,619.241 671.594,614.754 656.548,614.754 
					656.548,598.388 650.477,598.388 650.477,614.754 636.751,614.754 636.751,619.241 650.477,619.241 650.477,642.338 
					630.284,642.338 630.284,647.255 677.302,647.255 677.302,642.338 				"/>
			</g>
			<polygon fill="#13273A" points="626.39,651.152 626.39,595.961 626.39,594.89 626.39,590.256 612.466,590.256 612.466,595.961 
				619.312,595.961 619.312,651.152 619.312,654.004 619.312,656.856 677.401,656.856 677.401,651.152 			"/>
			<rect x="612.466" y="683.979" fill="#F9FDFF" width="181.542" height="6.335"/>
		</g>
		<g>
			<rect x="287.491" y="575.687" fill="#737472" width="170.258" height="95.82"/>
			
				<rect x="392.813" y="648.756" transform="matrix(-1 -4.693413e-11 4.693413e-11 -1 786.8477 1299.8583)" fill="#13273A" width="1.221" height="2.347"/>
			<path fill="#B1BDB8" d="M287.491,671.506v-79.322h156.334v71.601c0,0-132.082,0-139.506,0c-7.424,0-8.513,7.721-8.513,7.721
				H287.491z"/>
			<path fill="#F9FDFF" d="M282.806,575.687c3.696,0,174.943,0,174.943,0v5.741H276.207
				C276.207,581.428,276.932,575.687,282.806,575.687z"/>
			<rect x="287.491" y="592.185" fill="#7A8E88" width="156.334" height="12.406"/>
			<g>
				
					<rect x="302.933" y="592.185" transform="matrix(-1 -4.491397e-11 4.491397e-11 -1 682.0863 1234.5228)" fill="#13273A" width="76.22" height="50.153"/>
				<rect x="306.629" y="598.388" fill="#104D71" width="68.829" height="43.95"/>
				<rect x="306.629" y="621.749" fill="#0EA5F7" width="68.829" height="20.589"/>
				
					<rect x="306.629" y="619.241" transform="matrix(-1 -4.488733e-11 4.488733e-11 -1 682.0863 1240.99)" fill="#104D71" width="68.829" height="2.508"/>
				
					<rect x="302.933" y="647.255" transform="matrix(-1 -4.485002e-11 4.485002e-11 -1 683.7361 1298.4685)" fill="#C2CECE" width="77.87" height="3.959"/>
				
					<rect x="301.712" y="651.152" transform="matrix(-1 -4.491042e-11 4.491042e-11 -1 680.8655 1308.0082)" fill="#13273A" width="77.441" height="5.704"/>
				
					<rect x="302.933" y="647.255" transform="matrix(-1 -4.493174e-11 4.493174e-11 -1 683.7361 1295.8618)" fill="#ADB2B2" width="77.87" height="1.353"/>
				<line fill="#104D71" x1="306.629" y1="619.241" x2="306.629" y2="620.924"/>
				<rect x="306.629" y="604.591" fill="#2FC1E5" width="68.829" height="10.163"/>
				<path fill="#EDFFFF" d="M301.712,642.338v4.916h80.213v-4.916h-20.193v-23.097h13.726v-4.487h-13.726v-16.366h-6.071v16.366
					h-27.712v-16.366h-4.624v16.366h-16.696v4.487h16.696v23.097H301.712z M327.948,642.338v-23.097h27.712v23.097H327.948z"/>
				
					<rect x="327.948" y="602.314" transform="matrix(-1 -4.503698e-11 4.503698e-11 -1 666.4177 1244.6525)" fill="#07192B" width="10.521" height="40.024"/>
				
					<rect x="327.948" y="637.851" transform="matrix(-1 -4.469148e-11 4.469148e-11 -1 666.4177 1280.1888)" fill="#ADB2B2" width="10.521" height="4.487"/>
			</g>
			<g>
				
					<rect x="394.133" y="592.185" transform="matrix(-1 -4.489754e-11 4.489754e-11 -1 831.2928 1234.5228)" fill="#13273A" width="43.026" height="50.153"/>
				<rect x="398.621" y="598.388" fill="#104D71" width="34.843" height="43.95"/>
				<rect x="398.621" y="604.591" fill="#0EA5F7" width="34.843" height="37.747"/>
				<line fill="none" stroke="#001C44" stroke-miterlimit="10" x1="433.464" y1="614.754" x2="433.464" y2="619.241"/>
				
					<rect x="394.034" y="647.255" transform="matrix(-1 -4.489088e-11 4.489088e-11 -1 832.8437 1298.4685)" fill="#C2CECE" width="44.775" height="3.959"/>
				
					<rect x="394.034" y="647.255" transform="matrix(-1 -4.493129e-11 4.493129e-11 -1 832.8437 1295.8618)" fill="#ADB2B2" width="44.775" height="1.353"/>
				<rect x="398.621" y="604.591" fill="#2FC1E5" width="34.843" height="10.163"/>
				
					<rect x="398.621" y="619.241" transform="matrix(-1 -4.497437e-11 4.497437e-11 -1 832.0848 1240.99)" fill="#104D71" width="34.843" height="2.508"/>
				<polygon fill="#EDFFFF" points="413.667,642.338 413.667,619.241 398.621,619.241 398.621,614.754 413.667,614.754 
					413.667,598.388 419.738,598.388 419.738,614.754 433.464,614.754 433.464,619.241 419.738,619.241 419.738,642.338 
					439.931,642.338 439.931,647.255 392.912,647.255 392.912,642.338 				"/>
			</g>
			<polygon fill="#13273A" points="443.825,651.152 443.825,595.961 443.825,594.89 443.825,590.256 457.749,590.256 
				457.749,595.961 450.902,595.961 450.902,651.152 450.902,654.004 450.902,656.856 392.813,656.856 392.813,651.152 			"/>
			
				<rect x="276.207" y="683.979" transform="matrix(-1 -4.489798e-11 4.489798e-11 -1 733.9555 1374.2926)" fill="#F9FDFF" width="181.542" height="6.335"/>
		</g>
	</g>
	<rect x="322.018" y="460.466" fill="#2B7FB5" width="47.514" height="5.628"/>
	<polygon fill="#D5EDFA" points="302.88,445.212 302.88,466.094 306.048,466.094 306.048,449.947 372.171,449.947 372.171,466.094 
		375.141,466.094 375.141,445.212 	"/>
	<path fill="#7DB5D9" d="M308.952,459.022v7.072h4.751C313.703,462.05,308.952,459.022,308.952,459.022z"/>
	<polygon fill="#87BAD5" points="302.88,446.611 302.88,466.094 306.048,466.094 306.048,450.019 	"/>
	<path fill="#87BAD5" d="M372.171,450.23v15.864h2.97v-19.566C374.245,447.682,373.072,449.129,372.171,450.23z"/>
	<path fill="#8A989E" d="M822.054,581.236l-4.937-6.141l10.747-1.269l0,0C826.649,576.438,824.719,578.909,822.054,581.236z"/>
</g>
</svg>
